<svg width="24" height="48" viewBox="0 0 24 48" fill="none" xmlns="http://www.w3.org/2000/svg">
<g clip-path="url(#clip0_648_3065)">
<path d="M5.35938 16.6555H7.21563V22H5.35938V16.6555Z" fill="#616161"/>
<path d="M15.4707 16.059H13.3496V13.5262C13.3496 12.6199 12.6125 11.8828 11.7062 11.8828H11.2785V13.427C11.2785 15.093 10.0097 16.4688 8.38745 16.6379V22H14.9039C15.4773 22 15.9574 21.5887 16.046 21.0223L16.6128 17.3934C16.6652 17.0594 16.5691 16.7203 16.3492 16.4633C16.1292 16.2063 15.8089 16.059 15.4707 16.059Z" fill="#757575"/>
<path d="M20.0487 9.68128L18.7526 8.05054L17.4565 9.68128L15.5051 10.41L16.6555 12.1466L16.7456 14.2277L18.7526 13.6703L20.7597 14.2277L20.8498 12.1466L22.0002 10.41L20.0487 9.68128Z" fill="#424242"/>
<path d="M6.54363 9.68128L5.24754 8.05054L3.95145 9.68128L2 10.41L3.15039 12.1466L3.24043 14.2277L5.24754 13.6703L7.25461 14.2277L7.34465 12.1466L8.49504 10.41L6.54363 9.68128Z" fill="#424242"/>
<path d="M9.99633 8.17715L12.0034 7.61969L14.0105 8.17715L14.1005 6.09605L15.2509 4.35945L13.2995 3.63074L12.0034 2L10.7073 3.63074L8.75586 4.35945L9.90629 6.09605L9.99633 8.17715Z" fill="#424242"/>
<path d="M5.35938 40.6555H7.21563V46H5.35938V40.6555Z" fill="#1C7BF8"/>
<path d="M15.4707 40.059H13.3496V37.5262C13.3496 36.6199 12.6125 35.8828 11.7062 35.8828H11.2785V37.427C11.2785 39.093 10.0097 40.4688 8.38745 40.6379V46H14.9039C15.4773 46 15.9574 45.5887 16.046 45.0223L16.6128 41.3934C16.6652 41.0594 16.5691 40.7203 16.3492 40.4633C16.1292 40.2063 15.8089 40.059 15.4707 40.059Z" fill="#128FFF"/>
<path d="M20.0487 33.6813L18.7526 32.0505L17.4565 33.6813L15.5051 34.41L16.6555 36.1466L16.7456 38.2277L18.7526 37.6703L20.7597 38.2277L20.8498 36.1466L22.0002 34.41L20.0487 33.6813Z" fill="#2169E5"/>
<path d="M6.54363 33.6813L5.24754 32.0505L3.95145 33.6813L2 34.41L3.15039 36.1466L3.24043 38.2277L5.24754 37.6703L7.25461 38.2277L7.34465 36.1466L8.49504 34.41L6.54363 33.6813Z" fill="#2169E5"/>
<path d="M9.99633 32.1771L12.0034 31.6197L14.0105 32.1771L14.1005 30.0961L15.2509 28.3595L13.2995 27.6307L12.0034 26L10.7073 27.6307L8.75586 28.3595L9.90629 30.0961L9.99633 32.1771Z" fill="#2169E5"/>
</g>
<defs>
<clipPath id="clip0_648_3065">
<rect width="24" height="48" fill="white"/>
</clipPath>
</defs>
</svg>
