<svg width="24" height="48" viewBox="0 0 24 48" fill="none" xmlns="http://www.w3.org/2000/svg">
<g clip-path="url(#clip0_490_5255)">
<path d="M13.6273 10.8915C15.0793 9.80605 17.03 9.66424 18.6238 10.5284L19.7686 11.1518L19.7699 4.0024L18.3091 3.20652C16.9443 2.46618 15.2735 2.58763 14.0303 3.51772C12.5802 4.60314 10.631 4.74495 9.03903 3.88076L7.90381 3.25762V10.407L9.35597 11.2027C10.7182 11.9432 12.3869 11.8216 13.6273 10.8915Z" fill="#616161"/>
<path d="M5.72375 2V21.3365H4.33175C4.14847 21.3365 4 21.485 4 21.6682C4 21.8515 4.14847 22 4.33175 22H8.62567C8.80876 22 8.95742 21.8515 8.95742 21.6682C8.95742 21.485 8.80876 21.3365 8.62567 21.3365H7.24034V2H5.72375Z" fill="#424242"/>
<path d="M13.6273 34.8915C15.0793 33.806 17.03 33.6642 18.6238 34.5284L19.7686 35.1518L19.7699 28.0024L18.3091 27.2065C16.9443 26.4662 15.2735 26.5876 14.0303 27.5177C12.5802 28.6031 10.631 28.745 9.03903 27.8808L7.90381 27.2576V34.407L9.35597 35.2027C10.7182 35.9432 12.3869 35.8216 13.6273 34.8915Z" fill="#128FFF"/>
<path d="M5.72375 26V45.3365H4.33175C4.14847 45.3365 4 45.485 4 45.6682C4 45.8515 4.14847 46 4.33175 46H8.62567C8.80876 46 8.95742 45.8515 8.95742 45.6682C8.95742 45.485 8.80876 45.3365 8.62567 45.3365H7.24034V26H5.72375Z" fill="#2169E5"/>
</g>
<defs>
<clipPath id="clip0_490_5255">
<rect width="24" height="48" fill="white"/>
</clipPath>
</defs>
</svg>
