<svg width="24" height="48" viewBox="0 0 24 48" fill="none" xmlns="http://www.w3.org/2000/svg">
<g clip-path="url(#clip0_490_5170)">
<path d="M20 20.0001C20 20.5524 19.5523 21.0001 19 21.0001H5C4.44772 21.0001 4 20.5524 4 20.0001V11.0001H1L11.3273 1.61162C11.7087 1.26488 12.2913 1.26488 12.6727 1.61162L23 11.0001H20V20.0001Z" fill="#616161"/>
<path d="M20 44.0001C20 44.5524 19.5523 45.0001 19 45.0001H5C4.44772 45.0001 4 44.5524 4 44.0001V35.0001H1L11.3273 25.6116C11.7087 25.2649 12.2913 25.2649 12.6727 25.6116L23 35.0001H20V44.0001Z" fill="#1C7BF8"/>
</g>
<defs>
<clipPath id="clip0_490_5170">
<rect width="24" height="48" fill="white"/>
</clipPath>
</defs>
</svg>
