<svg width="48" height="144" viewBox="0 0 48 144" fill="none" xmlns="http://www.w3.org/2000/svg">
<g clip-path="url(#clip0_490_5170)">
<path d="M40 40.0002C40 41.1048 39.1046 42.0002 38 42.0002H10C8.89544 42.0002 8 41.1048 8 40.0002V22.0002H2L22.6546 3.22324C23.4174 2.52975 24.5826 2.52975 25.3454 3.22324L46 22.0002H40V40.0002Z" fill="#616161"/>
<path d="M40 136C40 137.105 39.1046 138 38 138H10C8.89544 138 8 137.105 8 136V118H2L22.6546 99.2232C23.4174 98.5298 24.5826 98.5298 25.3454 99.2232L46 118H40V136Z" fill="#1C7BF8"/>
</g>
<defs>
<clipPath id="clip0_490_5170">
<rect width="48" height="144" fill="white"/>
</clipPath>
</defs>
</svg>
