<svg width="24" height="48" viewBox="0 0 24 48" fill="none" xmlns="http://www.w3.org/2000/svg">
<g clip-path="url(#clip0_490_5179)">
<path d="M20.8888 3H3.11108V5.22224H20.8888V3Z" fill="#424242"/>
<path d="M20.8889 6.33337H3.11109L2 11.8889V14.1112H3.11109V20.7779H14.2222V14.1112H18.6667V20.7779H20.8889V14.1112H22V11.8889L20.8889 6.33337ZM12 18.5556H5.33333V14.1112H12V18.5556Z" fill="#757575"/>
<path d="M20.8888 27H3.11108V29.2222H20.8888V27Z" fill="#2169E5"/>
<path d="M20.8889 30.3334H3.11109L2 35.8889V38.1112H3.11109V44.7779H14.2222V38.1112H18.6667V44.7779H20.8889V38.1112H22V35.8889L20.8889 30.3334ZM12 42.5556H5.33333V38.1112H12V42.5556Z" fill="#128FFF"/>
</g>
<defs>
<clipPath id="clip0_490_5179">
<rect width="24" height="48" fill="white"/>
</clipPath>
</defs>
</svg>
