<svg width="24" height="48" viewBox="0 0 24 48" fill="none" xmlns="http://www.w3.org/2000/svg">
<g clip-path="url(#clip0_490_5203)">
<path d="M7.51294 9.90601H10.7181V22H7.51294V9.90601Z" fill="#757575"/>
<path d="M13.0256 12.4701H16.2308V22H13.0256V12.4701Z" fill="#757575"/>
<path d="M18.5386 7.94019H21.7437V22H18.5386V7.94019Z" fill="#757575"/>
<path d="M2 14.4786H5.20513V22H2V14.4786Z" fill="#757575"/>
<path d="M20.0308 2C19.1346 2 18.4081 2.72603 18.4081 3.62162C18.4081 3.83124 18.4483 4.03137 18.5208 4.21526L15.3933 6.87949C15.1638 6.75526 14.9009 6.6847 14.6216 6.6847C14.1578 6.6847 13.7398 6.87944 13.4441 7.1912L10.7442 6.08547C10.7444 6.075 10.745 6.06462 10.745 6.05406C10.745 5.15846 10.0185 4.43244 9.12226 4.43244C8.22602 4.43244 7.49952 5.15846 7.49952 6.05406C7.49952 6.1447 7.5073 6.23346 7.52161 6.32004L4.7167 7.97846C4.4405 7.76086 4.09213 7.63064 3.71311 7.63064C2.81687 7.63064 2.09033 8.35667 2.09033 9.25227C2.09033 10.1479 2.81687 10.8739 3.71311 10.8739C4.60935 10.8739 5.33584 10.1479 5.33584 9.25227C5.33584 9.16162 5.32807 9.07286 5.31375 8.98628L8.11867 7.32786C8.39486 7.54547 8.74324 7.67568 9.1223 7.67568C9.5861 7.67568 10.0041 7.48094 10.2999 7.16919L12.9997 8.27491C12.9995 8.28539 12.9989 8.29577 12.9989 8.30628C12.9989 9.20188 13.7254 9.92791 14.6217 9.92791C15.5179 9.92791 16.2444 9.20188 16.2444 8.30628C16.2444 8.11863 16.2121 7.93859 16.1535 7.77094L19.3155 5.07727C19.5313 5.18338 19.774 5.24325 20.0308 5.24325C20.9271 5.24325 21.6536 4.51722 21.6536 3.62162C21.6536 2.72603 20.927 2 20.0308 2Z" fill="#424242"/>
<path d="M7.51294 33.906H10.7181V46H7.51294V33.906Z" fill="#128FFF"/>
<path d="M13.0256 36.4701H16.2308V46H13.0256V36.4701Z" fill="#128FFF"/>
<path d="M18.5386 31.9402H21.7437V46H18.5386V31.9402Z" fill="#128FFF"/>
<path d="M2 38.4786H5.20513V46H2V38.4786Z" fill="#128FFF"/>
<path d="M20.0308 26C19.1346 26 18.4081 26.726 18.4081 27.6216C18.4081 27.8312 18.4483 28.0314 18.5208 28.2153L15.3933 30.8795C15.1638 30.7553 14.9009 30.6847 14.6216 30.6847C14.1578 30.6847 13.7398 30.8794 13.4441 31.1912L10.7442 30.0855C10.7444 30.075 10.745 30.0646 10.745 30.0541C10.745 29.1585 10.0185 28.4324 9.12226 28.4324C8.22602 28.4324 7.49952 29.1585 7.49952 30.0541C7.49952 30.1447 7.5073 30.2335 7.52161 30.32L4.7167 31.9785C4.4405 31.7609 4.09213 31.6306 3.71311 31.6306C2.81687 31.6306 2.09033 32.3567 2.09033 33.2523C2.09033 34.1479 2.81687 34.8739 3.71311 34.8739C4.60935 34.8739 5.33584 34.1479 5.33584 33.2523C5.33584 33.1616 5.32807 33.0729 5.31375 32.9863L8.11867 31.3279C8.39486 31.5455 8.74324 31.6757 9.1223 31.6757C9.5861 31.6757 10.0041 31.4809 10.2999 31.1692L12.9997 32.2749C12.9995 32.2854 12.9989 32.2958 12.9989 32.3063C12.9989 33.2019 13.7254 33.9279 14.6217 33.9279C15.5179 33.9279 16.2444 33.2019 16.2444 32.3063C16.2444 32.1186 16.2121 31.9386 16.1535 31.7709L19.3155 29.0773C19.5313 29.1834 19.774 29.2432 20.0308 29.2432C20.9271 29.2432 21.6536 28.5172 21.6536 27.6216C21.6536 26.726 20.927 26 20.0308 26Z" fill="#2169E5"/>
</g>
<defs>
<clipPath id="clip0_490_5203">
<rect width="24" height="48" fill="white"/>
</clipPath>
</defs>
</svg>
