<svg width="24" height="48" viewBox="0 0 24 48" fill="none" xmlns="http://www.w3.org/2000/svg">
<g clip-path="url(#clip0_648_3088)">
<path d="M20.6004 10.4339L18.5357 9.92617C18.4116 9.53477 18.2519 9.15523 18.0593 8.79217C18.3693 8.27614 19.0208 7.19006 19.0208 7.19006C19.1454 6.98254 19.1125 6.71679 18.9415 6.54582L17.4501 5.05443C17.2791 4.88293 17.0139 4.84999 16.8059 4.97511L15.2012 5.9366C14.8401 5.74553 14.4627 5.58743 14.0739 5.46435L13.5661 3.39966C13.5074 3.16481 13.2967 3 13.0547 3H10.9453C10.7033 3 10.4921 3.16481 10.4339 3.39962C10.4339 3.39962 10.0822 4.84068 9.92666 5.46382C9.5121 5.59513 9.11146 5.7656 8.72984 5.97366L7.06593 4.97511C6.85787 4.8515 6.59318 4.88346 6.42169 5.05443L4.93029 6.54582C4.75932 6.71679 4.72635 6.98254 4.85098 7.19006L5.87993 8.90857C5.7141 9.23559 5.57505 9.57598 5.46435 9.92462L3.39966 10.4339C3.16481 10.4926 3 10.7033 3 10.9453V13.0547C3 13.2967 3.16481 13.5079 3.39962 13.5661L5.46484 14.0738C5.59 14.4709 5.7527 14.8566 5.94996 15.2269L5.02918 16.7615C4.90455 16.9691 4.93753 17.2348 5.1085 17.4058L6.59989 18.8972C6.77037 19.0676 7.03608 19.1001 7.24413 18.9765C7.24413 18.9765 8.27667 18.3575 8.78239 18.0546C9.14855 18.2498 9.53168 18.411 9.9267 18.5361L10.434 20.6003C10.4921 20.8352 10.7033 21 10.9453 21H13.0547C13.2967 21 13.5074 20.8352 13.5661 20.6004L14.0733 18.5362C14.4797 18.4074 14.871 18.2411 15.2434 18.0392C15.763 18.3508 16.8058 18.9765 16.8058 18.9765C17.0134 19.1006 17.2791 19.0687 17.4501 18.8972L18.9415 17.4058C19.1124 17.2348 19.1454 16.9691 19.0208 16.7615L18.0727 15.1821C18.2596 14.8272 18.4146 14.4559 18.5357 14.0738L20.6003 13.5661C20.8352 13.5074 21 13.2967 21 13.0547V10.9453C21 10.7033 20.8352 10.4926 20.6004 10.4339ZM12 15.6914C9.96477 15.6914 8.30859 14.0352 8.30859 12C8.30859 9.96477 9.96477 8.30859 12 8.30859C14.0352 8.30859 15.6914 9.96477 15.6914 12C15.6914 14.0352 14.0352 15.6914 12 15.6914Z" fill="#616161"/>
<path d="M20.6004 34.4339L18.5357 33.9262C18.4116 33.5348 18.2519 33.1552 18.0593 32.7922C18.3693 32.2761 19.0208 31.1901 19.0208 31.1901C19.1454 30.9825 19.1125 30.7168 18.9415 30.5458L17.4501 29.0544C17.2791 28.8829 17.0139 28.85 16.8059 28.9751L15.2012 29.9366C14.8401 29.7455 14.4627 29.5874 14.0739 29.4643L13.5661 27.3997C13.5074 27.1648 13.2967 27 13.0547 27H10.9453C10.7033 27 10.4921 27.1648 10.4339 27.3996C10.4339 27.3996 10.0822 28.8407 9.92666 29.4638C9.5121 29.5951 9.11146 29.7656 8.72984 29.9737L7.06593 28.9751C6.85787 28.8515 6.59318 28.8835 6.42169 29.0544L4.93029 30.5458C4.75932 30.7168 4.72635 30.9825 4.85098 31.1901L5.87993 32.9086C5.7141 33.2356 5.57505 33.576 5.46435 33.9246L3.39966 34.4339C3.16481 34.4926 3 34.7033 3 34.9453V37.0547C3 37.2967 3.16481 37.5079 3.39962 37.5661L5.46484 38.0738C5.59 38.4709 5.7527 38.8566 5.94996 39.2269L5.02918 40.7615C4.90455 40.9691 4.93753 41.2348 5.1085 41.4058L6.59989 42.8972C6.77037 43.0676 7.03608 43.1001 7.24413 42.9765C7.24413 42.9765 8.27667 42.3575 8.78239 42.0546C9.14855 42.2498 9.53168 42.411 9.9267 42.5361L10.434 44.6003C10.4921 44.8352 10.7033 45 10.9453 45H13.0547C13.2967 45 13.5074 44.8352 13.5661 44.6004L14.0733 42.5362C14.4797 42.4074 14.871 42.2411 15.2434 42.0392C15.763 42.3508 16.8058 42.9765 16.8058 42.9765C17.0134 43.1006 17.2791 43.0687 17.4501 42.8972L18.9415 41.4058C19.1124 41.2348 19.1454 40.9691 19.0208 40.7615L18.0727 39.1821C18.2596 38.8272 18.4146 38.4559 18.5357 38.0738L20.6003 37.5661C20.8352 37.5074 21 37.2967 21 37.0547V34.9453C21 34.7033 20.8352 34.4926 20.6004 34.4339ZM12 39.6914C9.96477 39.6914 8.30859 38.0352 8.30859 36C8.30859 33.9648 9.96477 32.3086 12 32.3086C14.0352 32.3086 15.6914 33.9648 15.6914 36C15.6914 38.0352 14.0352 39.6914 12 39.6914Z" fill="#1C7BF8"/>
</g>
<defs>
<clipPath id="clip0_648_3088">
<rect width="24" height="48" fill="white"/>
</clipPath>
</defs>
</svg>
