<svg width="24" height="48" viewBox="0 0 24 48" fill="none" xmlns="http://www.w3.org/2000/svg">
<g clip-path="url(#clip0_490_5192)">
<path d="M13.0999 10.0645C13.3585 9.91738 13.585 9.7199 13.7659 9.48371C13.9468 9.24753 14.0784 8.97745 14.1531 8.68946C14.2528 8.66314 14.341 8.60459 14.4041 8.52293C14.4671 8.44126 14.5013 8.34105 14.5015 8.2379V8.01915C14.5011 7.91625 14.4667 7.81636 14.4037 7.735C14.3407 7.65363 14.2526 7.59533 14.1531 7.56915C14.0297 7.09192 13.7513 6.6692 13.3615 6.36741C12.9718 6.06562 12.4929 5.90186 11.9999 5.90186C11.507 5.90186 11.0281 6.06562 10.6383 6.36741C10.2486 6.6692 9.97019 7.09192 9.84682 7.56915C9.7473 7.59533 9.65921 7.65363 9.5962 7.735C9.5332 7.81636 9.49882 7.91625 9.49838 8.01915V8.2379C9.49855 8.34105 9.53281 8.44126 9.59583 8.52293C9.65884 8.60459 9.74708 8.66314 9.84682 8.68946C9.92145 8.97745 10.0531 9.24753 10.234 9.48371C10.4149 9.7199 10.6414 9.91738 10.8999 10.0645C9.89995 10.3848 9.0562 11.2301 8.63745 12.3363C8.58093 12.4913 8.55771 12.6565 8.56931 12.821C8.58091 12.9856 8.62706 13.1458 8.70476 13.2913C8.78245 13.4368 8.88995 13.5643 9.02023 13.6655C9.15052 13.7667 9.30066 13.8393 9.46088 13.8785C9.31089 14.8416 9.26011 15.8176 9.30932 16.791C9.32038 17.0204 9.40734 17.2395 9.55651 17.4141C9.70568 17.5887 9.90862 17.7087 10.1334 17.7554C10.3583 17.8021 10.5922 17.7728 10.7986 17.672C11.0049 17.5713 11.1719 17.4048 11.2734 17.1988C11.5668 16.5965 11.8098 15.9709 11.9999 15.3285C12.1901 15.9709 12.4331 16.5965 12.7265 17.1988C12.828 17.4048 12.995 17.5713 13.2013 17.672C13.4077 17.7728 13.6416 17.8021 13.8664 17.7554C14.0913 17.7087 14.2942 17.5887 14.4434 17.4141C14.5926 17.2395 14.6795 17.0204 14.6906 16.791C14.7398 15.8176 14.689 14.8416 14.539 13.8785C14.6992 13.8393 14.8494 13.7667 14.9797 13.6656C15.11 13.5644 15.2175 13.4369 15.2952 13.2914C15.3729 13.1458 15.419 12.9856 15.4306 12.821C15.4422 12.6565 15.419 12.4913 15.3624 12.3363C14.9437 11.2301 14.0999 10.3848 13.0999 10.0645ZM13.814 8.01915H14.0328V8.2379H13.814V8.01915ZM10.1859 8.2379H9.96713V8.01915H10.1859V8.2379ZM10.1531 12.9629C10.1531 12.9629 10.1218 13.0924 10.076 13.2737C10.07 13.3049 10.0576 13.3345 10.0398 13.3608C10.0219 13.3871 9.99884 13.4095 9.97204 13.4266C9.94525 13.4437 9.91525 13.4552 9.88388 13.4603C9.8525 13.4655 9.82041 13.4642 9.78956 13.4565C9.7587 13.4489 9.72972 13.435 9.70438 13.4158C9.67905 13.3966 9.65788 13.3724 9.64218 13.3448C9.62647 13.3172 9.61656 13.2866 9.61303 13.255C9.6095 13.2234 9.61244 13.1914 9.62166 13.161C9.66635 12.9798 9.69838 12.8504 9.69838 12.8504C9.7152 12.7922 9.75391 12.7428 9.80638 12.7125C9.85886 12.6822 9.92102 12.6734 9.97984 12.6879C10.0387 12.7025 10.0895 12.7393 10.1218 12.7905C10.1541 12.8418 10.1653 12.9036 10.1531 12.9629ZM10.889 8.6504C10.8268 8.6504 10.7672 8.62571 10.7233 8.58175C10.6793 8.5378 10.6546 8.47819 10.6546 8.41603V7.84259C10.6546 7.78043 10.6793 7.72082 10.7233 7.67686C10.7672 7.63291 10.8268 7.60821 10.889 7.60821H13.1109C13.173 7.60821 13.2327 7.63291 13.2766 7.67686C13.3206 7.72082 13.3453 7.78043 13.3453 7.84259V8.41603C13.3453 8.47819 13.3206 8.5378 13.2766 8.58175C13.2327 8.62571 13.173 8.6504 13.1109 8.6504H10.889ZM14.2063 13.4451C14.1461 13.4596 14.0826 13.4497 14.0296 13.4175C13.9767 13.3853 13.9386 13.3334 13.9238 13.2732C13.8787 13.092 13.8468 12.9624 13.8468 12.9624C13.8346 12.9031 13.8457 12.8413 13.878 12.7901C13.9103 12.7388 13.9612 12.702 14.02 12.6875C14.0789 12.6729 14.141 12.6817 14.1935 12.712C14.246 12.7423 14.2847 12.7917 14.3015 12.8499C14.3015 12.8499 14.3328 12.9793 14.3782 13.1606C14.3857 13.1905 14.3872 13.2217 14.3826 13.2522C14.378 13.2828 14.3674 13.3121 14.3515 13.3386C14.3355 13.365 14.3144 13.388 14.2895 13.4063C14.2646 13.4246 14.2364 13.4378 14.2063 13.4451Z" fill="#424242"/>
<path d="M21.0937 6.35206L12.7344 2.17238C12.5064 2.059 12.2552 2 12.0006 2C11.746 2 11.4949 2.059 11.2669 2.17238L2.90626 6.35206C2.6332 6.4876 2.40357 6.69691 2.24339 6.95629C2.08322 7.21566 1.9989 7.51472 2.00001 7.81956V15.8469C1.99895 16.1517 2.08329 16.4506 2.24346 16.7099C2.40364 16.9691 2.63325 17.1783 2.90626 17.3138L11.2675 21.4944C11.4953 21.6075 11.7461 21.6664 12.0005 21.6664C12.2548 21.6664 12.5057 21.6075 12.7334 21.4944L21.0937 17.3138C21.3668 17.1783 21.5964 16.9691 21.7565 16.7099C21.9167 16.4506 22.0011 16.1517 22 15.8469V7.81956C22.0011 7.51472 21.9168 7.21566 21.7566 6.95629C21.5964 6.69691 21.3668 6.4876 21.0937 6.35206ZM11.7656 2.49347C11.9202 2.46066 12.0798 2.46066 12.2344 2.49347V4.97378C12.0784 4.96191 11.9216 4.96191 11.7656 4.97378V2.49347ZM6.01094 18.3422L5.48907 18.0813L8.20063 16.7063L5.48985 15.3503L2.8222 16.6842C2.70794 16.5732 2.61783 16.4398 2.55751 16.2924L5.25469 14.9438V12.2132L2.46876 13.6061V13.0821L5.25469 11.6891V8.95659L2.46876 10.3499V9.82581L5.25469 8.43253V5.70222L5.72344 5.46785V8.198L8.51094 6.8041V4.07425L8.97969 3.83988V7.02066C8.9403 7.05994 8.90346 7.10169 8.86938 7.14566L5.72344 8.72222V11.4547L8.97969 9.82659V10.1594C8.85979 10.2746 8.74589 10.3958 8.63844 10.5227L5.72344 11.9788V14.7094L7.83625 13.653C7.90283 13.7957 7.98629 13.93 8.08485 14.0528L6.01391 15.0883L8.35766 16.2602C8.35163 16.5494 8.36945 16.8386 8.41094 17.1249L6.01094 18.3422ZM14.6812 19.9961L12 18.6416L9.31875 19.9961L8.79688 19.7349L12 18.0813L15.2031 19.7349L14.6812 19.9961ZM15.1772 14.1022C15.1412 14.1263 15.1125 14.1599 15.0944 14.1992C15.0763 14.2386 15.0695 14.2822 15.0747 14.3252C15.171 15.1503 15.1989 15.982 15.1581 16.8117C15.1408 17.1984 14.9749 17.5634 14.695 17.8306C14.4151 18.0978 14.0428 18.2467 13.6558 18.2461C12.9995 18.2541 12.4581 17.8117 12.2119 17.2117C12.1929 17.1716 12.1629 17.1377 12.1254 17.1139C12.0879 17.0902 12.0444 17.0776 12 17.0776C11.9556 17.0776 11.9121 17.0902 11.8746 17.1139C11.8371 17.1377 11.8071 17.1716 11.7881 17.2117C11.5419 17.8117 11.0009 18.2541 10.3442 18.2461C9.95722 18.2467 9.58493 18.0978 9.30502 17.8306C9.02511 17.5634 8.85919 17.1984 8.84188 16.8117C8.80112 15.982 8.82902 15.1503 8.92532 14.3252C8.93051 14.2822 8.92367 14.2386 8.90558 14.1992C8.88749 14.1599 8.85884 14.1263 8.82282 14.1022C8.51652 13.8972 8.28833 13.5949 8.17517 13.2441C8.062 12.8933 8.07048 12.5146 8.19922 12.1692C8.51068 11.3311 9.06825 10.6067 9.79875 10.0911C9.82469 10.073 9.84673 10.0499 9.86356 10.0231C9.88038 9.99634 9.89165 9.96646 9.89669 9.93523C9.90174 9.90401 9.90045 9.87209 9.89291 9.84138C9.88537 9.81066 9.87174 9.78178 9.85281 9.75644C9.69861 9.55349 9.57417 9.32956 9.48328 9.09144C9.46759 9.05007 9.4405 9.01399 9.40516 8.98737C9.28836 8.90039 9.1936 8.78722 9.12847 8.65697C9.06334 8.52672 9.02967 8.383 9.03016 8.23737V8.02066C9.02967 7.87503 9.06334 7.73132 9.12847 7.60106C9.1936 7.47081 9.28836 7.35764 9.40516 7.27066C9.4405 7.24404 9.46759 7.20796 9.48328 7.16659C9.68049 6.65948 10.0263 6.22376 10.4754 5.91655C10.9245 5.60934 11.4559 5.44496 12 5.44496C12.5441 5.44496 13.0755 5.60934 13.5246 5.91655C13.9737 6.22376 14.3195 6.65948 14.5167 7.16659C14.5324 7.20796 14.5595 7.24404 14.5948 7.27066C14.7116 7.35764 14.8064 7.47081 14.8715 7.60106C14.9367 7.73132 14.9703 7.87503 14.9698 8.02066V8.23941C14.9703 8.38503 14.9367 8.52875 14.8715 8.659C14.8064 8.78925 14.7116 8.90242 14.5948 8.9894C14.5595 9.01602 14.5324 9.0521 14.5167 9.09347C14.4258 9.3316 14.3014 9.55552 14.1472 9.75847C14.1283 9.78381 14.1146 9.81269 14.1071 9.84341C14.0996 9.87412 14.0983 9.90604 14.1033 9.93726C14.1084 9.96849 14.1196 9.99838 14.1364 10.0252C14.1533 10.0519 14.1753 10.0751 14.2012 10.0932C14.9318 10.6088 15.4893 11.3331 15.8008 12.1713C15.929 12.5164 15.9372 12.8946 15.8241 13.245C15.7109 13.5953 15.483 13.8973 15.1772 14.1022ZM21.5312 10.3499L18.7453 8.95659V11.6891L21.5312 13.0821V13.6061L18.7453 12.2132V14.9438L21.4425 16.2924C21.3822 16.4398 21.2921 16.5732 21.1778 16.6842L18.5101 15.3503L15.7994 16.7056L18.5109 18.0806L17.9891 18.3416L15.5891 17.1247C15.6305 16.8384 15.6484 16.5492 15.6423 16.26L17.9861 15.0881L15.9152 14.0528C16.0137 13.93 16.0972 13.7957 16.1637 13.653L18.2766 14.7094V11.9788L15.3616 10.5227C15.2541 10.3958 15.1402 10.2746 15.0203 10.1594V9.82659L18.2766 11.4547V8.72222L15.1306 7.14566C15.0965 7.10169 15.0597 7.05994 15.0203 7.02066V3.83988L15.4891 4.07425V6.8041L18.2766 8.198V5.46785L18.7453 5.70222V8.43253L21.5312 9.82581V10.3499Z" fill="#757575"/>
<path d="M13.0999 34.0645C13.3585 33.9174 13.585 33.7199 13.7659 33.4837C13.9468 33.2475 14.0784 32.9774 14.1531 32.6895C14.2528 32.6631 14.341 32.6046 14.4041 32.5229C14.4671 32.4413 14.5013 32.3411 14.5015 32.2379V32.0192C14.5011 31.9162 14.4667 31.8164 14.4037 31.735C14.3407 31.6536 14.2526 31.5953 14.1531 31.5692C14.0297 31.0919 13.7513 30.6692 13.3615 30.3674C12.9718 30.0656 12.4929 29.9019 11.9999 29.9019C11.507 29.9019 11.0281 30.0656 10.6383 30.3674C10.2486 30.6692 9.97019 31.0919 9.84682 31.5692C9.7473 31.5953 9.65921 31.6536 9.5962 31.735C9.5332 31.8164 9.49882 31.9162 9.49838 32.0192V32.2379C9.49855 32.3411 9.53281 32.4413 9.59583 32.5229C9.65884 32.6046 9.74708 32.6631 9.84682 32.6895C9.92145 32.9774 10.0531 33.2475 10.234 33.4837C10.4149 33.7199 10.6414 33.9174 10.8999 34.0645C9.89995 34.3848 9.0562 35.2301 8.63745 36.3363C8.58093 36.4913 8.55771 36.6565 8.56931 36.821C8.58091 36.9856 8.62706 37.1458 8.70476 37.2913C8.78245 37.4368 8.88995 37.5643 9.02023 37.6655C9.15052 37.7667 9.30066 37.8393 9.46088 37.8785C9.31089 38.8416 9.26011 39.8176 9.30932 40.791C9.32038 41.0204 9.40734 41.2395 9.55651 41.4141C9.70568 41.5887 9.90862 41.7087 10.1334 41.7554C10.3583 41.8021 10.5922 41.7728 10.7986 41.672C11.0049 41.5713 11.1719 41.4048 11.2734 41.1988C11.5668 40.5965 11.8098 39.9709 11.9999 39.3285C12.1901 39.9709 12.4331 40.5965 12.7265 41.1988C12.828 41.4048 12.995 41.5713 13.2013 41.672C13.4077 41.7728 13.6416 41.8021 13.8664 41.7554C14.0913 41.7087 14.2942 41.5887 14.4434 41.4141C14.5926 41.2395 14.6795 41.0204 14.6906 40.791C14.7398 39.8176 14.689 38.8416 14.539 37.8785C14.6992 37.8393 14.8494 37.7667 14.9797 37.6656C15.11 37.5644 15.2175 37.4369 15.2952 37.2914C15.3729 37.1458 15.419 36.9856 15.4306 36.821C15.4422 36.6565 15.419 36.4913 15.3624 36.3363C14.9437 35.2301 14.0999 34.3848 13.0999 34.0645ZM13.814 32.0192H14.0328V32.2379H13.814V32.0192ZM10.1859 32.2379H9.96713V32.0192H10.1859V32.2379ZM10.1531 36.9629C10.1531 36.9629 10.1218 37.0924 10.076 37.2737C10.07 37.3049 10.0576 37.3345 10.0398 37.3608C10.0219 37.3871 9.99884 37.4095 9.97204 37.4266C9.94525 37.4437 9.91525 37.4552 9.88388 37.4603C9.8525 37.4655 9.82041 37.4642 9.78956 37.4565C9.7587 37.4489 9.72972 37.435 9.70438 37.4158C9.67905 37.3966 9.65788 37.3724 9.64218 37.3448C9.62647 37.3172 9.61656 37.2866 9.61303 37.255C9.6095 37.2234 9.61244 37.1914 9.62166 37.161C9.66635 36.9798 9.69838 36.8504 9.69838 36.8504C9.7152 36.7922 9.75391 36.7428 9.80638 36.7125C9.85886 36.6822 9.92102 36.6734 9.97984 36.6879C10.0387 36.7025 10.0895 36.7393 10.1218 36.7905C10.1541 36.8418 10.1653 36.9036 10.1531 36.9629ZM10.889 32.6504C10.8268 32.6504 10.7672 32.6257 10.7233 32.5818C10.6793 32.5378 10.6546 32.4782 10.6546 32.416V31.8426C10.6546 31.7804 10.6793 31.7208 10.7233 31.6769C10.7672 31.6329 10.8268 31.6082 10.889 31.6082H13.1109C13.173 31.6082 13.2327 31.6329 13.2766 31.6769C13.3206 31.7208 13.3453 31.7804 13.3453 31.8426V32.416C13.3453 32.4782 13.3206 32.5378 13.2766 32.5818C13.2327 32.6257 13.173 32.6504 13.1109 32.6504H10.889ZM14.2063 37.4451C14.1461 37.4596 14.0826 37.4497 14.0296 37.4175C13.9767 37.3853 13.9386 37.3334 13.9238 37.2732C13.8787 37.092 13.8468 36.9624 13.8468 36.9624C13.8346 36.9031 13.8457 36.8413 13.878 36.7901C13.9103 36.7388 13.9612 36.702 14.02 36.6875C14.0789 36.6729 14.141 36.6817 14.1935 36.712C14.246 36.7423 14.2847 36.7917 14.3015 36.8499C14.3015 36.8499 14.3328 36.9793 14.3782 37.1606C14.3857 37.1905 14.3872 37.2217 14.3826 37.2522C14.378 37.2828 14.3674 37.3121 14.3515 37.3386C14.3355 37.365 14.3144 37.388 14.2895 37.4063C14.2646 37.4246 14.2364 37.4378 14.2063 37.4451Z" fill="#2169E5"/>
<path d="M21.0937 30.3521L12.7344 26.1724C12.5064 26.059 12.2552 26 12.0006 26C11.746 26 11.4949 26.059 11.2669 26.1724L2.90626 30.3521C2.6332 30.4876 2.40357 30.6969 2.24339 30.9563C2.08322 31.2157 1.9989 31.5147 2.00001 31.8196V39.8469C1.99895 40.1517 2.08329 40.4506 2.24346 40.7099C2.40364 40.9691 2.63325 41.1783 2.90626 41.3138L11.2675 45.4944C11.4953 45.6075 11.7461 45.6664 12.0005 45.6664C12.2548 45.6664 12.5057 45.6075 12.7334 45.4944L21.0937 41.3138C21.3668 41.1783 21.5964 40.9691 21.7565 40.7099C21.9167 40.4506 22.0011 40.1517 22 39.8469V31.8196C22.0011 31.5147 21.9168 31.2157 21.7566 30.9563C21.5964 30.6969 21.3668 30.4876 21.0937 30.3521ZM11.7656 26.4935C11.9202 26.4607 12.0798 26.4607 12.2344 26.4935V28.9738C12.0784 28.9619 11.9216 28.9619 11.7656 28.9738V26.4935ZM6.01094 42.3422L5.48907 42.0813L8.20063 40.7063L5.48985 39.3503L2.8222 40.6842C2.70794 40.5732 2.61783 40.4398 2.55751 40.2924L5.25469 38.9438V36.2132L2.46876 37.6061V37.0821L5.25469 35.6891V32.9566L2.46876 34.3499V33.8258L5.25469 32.4325V29.7022L5.72344 29.4678V32.198L8.51094 30.8041V28.0743L8.97969 27.8399V31.0207C8.9403 31.0599 8.90346 31.1017 8.86938 31.1457L5.72344 32.7222V35.4547L8.97969 33.8266V34.1594C8.85979 34.2746 8.74589 34.3958 8.63844 34.5227L5.72344 35.9788V38.7094L7.83625 37.653C7.90283 37.7957 7.98629 37.93 8.08485 38.0528L6.01391 39.0883L8.35766 40.2602C8.35163 40.5494 8.36945 40.8386 8.41094 41.1249L6.01094 42.3422ZM14.6812 43.9961L12 42.6416L9.31875 43.9961L8.79688 43.7349L12 42.0813L15.2031 43.7349L14.6812 43.9961ZM15.1772 38.1022C15.1412 38.1263 15.1125 38.1599 15.0944 38.1992C15.0763 38.2386 15.0695 38.2822 15.0747 38.3252C15.171 39.1503 15.1989 39.982 15.1581 40.8117C15.1408 41.1984 14.9749 41.5634 14.695 41.8306C14.4151 42.0978 14.0428 42.2467 13.6558 42.2461C12.9995 42.2541 12.4581 41.8117 12.2119 41.2117C12.1929 41.1716 12.1629 41.1377 12.1254 41.1139C12.0879 41.0902 12.0444 41.0776 12 41.0776C11.9556 41.0776 11.9121 41.0902 11.8746 41.1139C11.8371 41.1377 11.8071 41.1716 11.7881 41.2117C11.5419 41.8117 11.0009 42.2541 10.3442 42.2461C9.95722 42.2467 9.58493 42.0978 9.30502 41.8306C9.02511 41.5634 8.85919 41.1984 8.84188 40.8117C8.80112 39.982 8.82902 39.1503 8.92532 38.3252C8.93051 38.2822 8.92367 38.2386 8.90558 38.1992C8.88749 38.1599 8.85884 38.1263 8.82282 38.1022C8.51652 37.8972 8.28833 37.5949 8.17517 37.2441C8.062 36.8933 8.07048 36.5146 8.19922 36.1692C8.51068 35.3311 9.06825 34.6067 9.79875 34.0911C9.82469 34.073 9.84673 34.0499 9.86356 34.0231C9.88038 33.9963 9.89165 33.9665 9.89669 33.9352C9.90174 33.904 9.90045 33.8721 9.89291 33.8414C9.88537 33.8107 9.87174 33.7818 9.85281 33.7564C9.69861 33.5535 9.57417 33.3296 9.48328 33.0914C9.46759 33.0501 9.4405 33.014 9.40516 32.9874C9.28836 32.9004 9.1936 32.7872 9.12847 32.657C9.06334 32.5267 9.02967 32.383 9.03016 32.2374V32.0207C9.02967 31.875 9.06334 31.7313 9.12847 31.6011C9.1936 31.4708 9.28836 31.3576 9.40516 31.2707C9.4405 31.244 9.46759 31.208 9.48328 31.1666C9.68049 30.6595 10.0263 30.2238 10.4754 29.9166C10.9245 29.6093 11.4559 29.445 12 29.445C12.5441 29.445 13.0755 29.6093 13.5246 29.9166C13.9737 30.2238 14.3195 30.6595 14.5167 31.1666C14.5324 31.208 14.5595 31.244 14.5948 31.2707C14.7116 31.3576 14.8064 31.4708 14.8715 31.6011C14.9367 31.7313 14.9703 31.875 14.9698 32.0207V32.2394C14.9703 32.385 14.9367 32.5287 14.8715 32.659C14.8064 32.7893 14.7116 32.9024 14.5948 32.9894C14.5595 33.016 14.5324 33.0521 14.5167 33.0935C14.4258 33.3316 14.3014 33.5555 14.1472 33.7585C14.1283 33.7838 14.1146 33.8127 14.1071 33.8434C14.0996 33.8741 14.0983 33.906 14.1033 33.9373C14.1084 33.9685 14.1196 33.9984 14.1364 34.0252C14.1533 34.0519 14.1753 34.0751 14.2012 34.0932C14.9318 34.6088 15.4893 35.3331 15.8008 36.1713C15.929 36.5164 15.9372 36.8946 15.8241 37.245C15.7109 37.5953 15.483 37.8973 15.1772 38.1022ZM21.5312 34.3499L18.7453 32.9566V35.6891L21.5312 37.0821V37.6061L18.7453 36.2132V38.9438L21.4425 40.2924C21.3822 40.4398 21.2921 40.5732 21.1778 40.6842L18.5101 39.3503L15.7994 40.7056L18.5109 42.0806L17.9891 42.3416L15.5891 41.1247C15.6305 40.8384 15.6484 40.5492 15.6423 40.26L17.9861 39.0881L15.9152 38.0528C16.0137 37.93 16.0972 37.7957 16.1637 37.653L18.2766 38.7094V35.9788L15.3616 34.5227C15.2541 34.3958 15.1402 34.2746 15.0203 34.1594V33.8266L18.2766 35.4547V32.7222L15.1306 31.1457C15.0965 31.1017 15.0597 31.0599 15.0203 31.0207V27.8399L15.4891 28.0743V30.8041L18.2766 32.198V29.4678L18.7453 29.7022V32.4325L21.5312 33.8258V34.3499Z" fill="#128FFF"/>
</g>
<defs>
<clipPath id="clip0_490_5192">
<rect width="24" height="48" fill="white"/>
</clipPath>
</defs>
</svg>
