<svg xmlns="http://www.w3.org/2000/svg" xmlns:xlink="http://www.w3.org/1999/xlink" xmlns:svgjs="http://svgjs.com/svgjs" version="1.1" width="512" height="512" x="0" y="0" viewBox="0 0 64 64" style="enable-background:new 0 0 512 512" xml:space="preserve" class="">
                                <g transform="matrix(0.91,0,0,0.91,2.882339916229249,2.8799551320075985)"><path xmlns="http://www.w3.org/2000/svg" id="path3587" d="m32.03 2.002c-16.537 0-30.006 13.461-30.006 29.998s13.469 29.997 30.006 29.997c16.391 0 29.762-13.256 29.998-29.973 0-.009 0-.017 0-.026 0-1.097-.903-2-2-2-.001 0-.002 0-.002 0h-26.002v-26.002c-.004-1.092-.901-1.99-1.994-1.994zm-2.002 4.403v25.596c0 1.098.903 2.001 2 2.001h25.581c-1.244 13.579-12.04 23.999-25.579 23.999-14.372 0-26.002-11.629-26.002-26.001 0-13.662 10.616-24.523 24-25.595z" fill="#c2c4c9" data-original="#000000" class=""/>
                                    <path xmlns="http://www.w3.org/2000/svg" id="path3583" d="m39.045 2.881c-.006 0-.012 0-.018 0-1.097 0-2 .903-2 2v20.122c0 1.097.903 2 2 2h20.103c1.097-.001 1.999-.904 1.999-2 0-.177-.024-.353-.07-.523-2.899-10.694-11.129-18.849-21.534-21.534-.156-.041-.318-.063-.48-.065zm1.986 5.371c6.759 2.602 11.978 7.782 14.714 14.747h-14.714z" fill="#c2c4c9" data-original="#000000" class=""/>
                                </g>
                            </svg>