<svg width="24" height="24" viewBox="0 0 24 24" fill="none" xmlns="http://www.w3.org/2000/svg">
<path d="M20.1492 16.0942C18.8892 15.0292 18.1667 13.4725 18.1667 11.8233V9.5C18.1667 6.5675 15.9883 4.14 13.1667 3.73333V2.83333C13.1667 2.3725 12.7933 2 12.3333 2C11.8733 2 11.5 2.3725 11.5 2.83333V3.73333C8.6775 4.14 6.5 6.5675 6.5 9.5V11.8233C6.5 13.4725 5.7775 15.0292 4.51 16.1008C4.18583 16.3783 4 16.7817 4 17.2083C4 18.0125 4.65417 18.6667 5.45833 18.6667H19.2083C20.0125 18.6667 20.6667 18.0125 20.6667 17.2083C20.6667 16.7817 20.4808 16.3783 20.1492 16.0942Z" fill="#616161"/>
<path d="M12.3334 22C13.8426 22 15.1051 20.9242 15.3951 19.5H9.27173C9.56173 20.9242 10.8242 22 12.3334 22Z" fill="#616161"/>
</svg>
