<?xml version="1.0"?>
<svg xmlns="http://www.w3.org/2000/svg" xmlns:xlink="http://www.w3.org/1999/xlink" xmlns:svgjs="http://svgjs.com/svgjs" version="1.1" width="512" height="512" x="0" y="0" viewBox="0 0 48 48" style="enable-background:new 0 0 512 512" xml:space="preserve"><g transform="matrix(0.94,0,0,0.94,1.4405871963501014,1.4400000000000048)"><g xmlns="http://www.w3.org/2000/svg" id="Line"><path d="m24 2a15 15 0 0 0 -15 15v11.7l-3.32 5a4.08 4.08 0 0 0 3.39 6.3h29.86a4.08 4.08 0 0 0 3.39-6.33l-3.32-4.97v-11.7a15 15 0 0 0 -15-15z" fill="#64748b" data-original="#000000"/><path d="m24 46a6 6 0 0 0 5.65-4h-11.3a6 6 0 0 0 5.65 4z" fill="#64748b" data-original="#000000"/></g></g></svg>
