<?xml version="1.0"?>
<svg xmlns="http://www.w3.org/2000/svg" xmlns:xlink="http://www.w3.org/1999/xlink" xmlns:svgjs="http://svgjs.com/svgjs" version="1.1" width="512" height="512" x="0" y="0" viewBox="0 0 32 32" style="enable-background:new 0 0 512 512" xml:space="preserve" class=""><g transform="matrix(0.8499999999999999,0,0,0.8500000000000001,2.400000035762787,2.3999999999999986)"><g xmlns="http://www.w3.org/2000/svg" id="Icon" transform="matrix(.5 0 0 .5 -25 -25)"><g transform="matrix(2.4 0 0 2.4 49.2 49.2)"><path d="m12.833 3.667c0-1.38-1.12-2.5-2.5-2.5h-6.666c-1.38 0-2.5 1.12-2.5 2.5v6.666c0 1.38 1.12 2.5 2.5 2.5h6.666c1.38 0 2.5-1.12 2.5-2.5zm-1.666 0v6.666c0 .46-.374.834-.834.834h-6.666c-.46 0-.834-.374-.834-.834v-6.666c0-.46.374-.834.834-.834h6.666c.46 0 .834.374.834.834z" fill="#9598a1" data-original="#000000" class=""/></g><g transform="matrix(2.4 0 0 2.4 49.2 81.2)"><path d="m12.833 3.667c0-1.38-1.12-2.5-2.5-2.5h-6.666c-1.38 0-2.5 1.12-2.5 2.5v6.666c0 1.38 1.12 2.5 2.5 2.5h6.666c1.38 0 2.5-1.12 2.5-2.5zm-1.666 0v6.666c0 .46-.374.834-.834.834h-6.666c-.46 0-.834-.374-.834-.834v-6.666c0-.46.374-.834.834-.834h6.666c.46 0 .834.374.834.834z" fill="#9598a1" data-original="#000000" class=""/></g><g transform="matrix(2.4 0 0 2.4 81.2 49.2)"><path d="m12.833 3.667c0-1.38-1.12-2.5-2.5-2.5h-6.666c-1.38 0-2.5 1.12-2.5 2.5v6.666c0 1.38 1.12 2.5 2.5 2.5h6.666c1.38 0 2.5-1.12 2.5-2.5zm-1.666 0v6.666c0 .46-.374.834-.834.834h-6.666c-.46 0-.834-.374-.834-.834v-6.666c0-.46.374-.834.834-.834h6.666c.46 0 .834.374.834.834z" fill="#9598a1" data-original="#000000" class=""/></g><g transform="matrix(2.4 0 0 2.4 81.2 81.2)"><path d="m12.833 3.667c0-1.38-1.12-2.5-2.5-2.5h-6.666c-1.38 0-2.5 1.12-2.5 2.5v6.666c0 1.38 1.12 2.5 2.5 2.5h6.666c1.38 0 2.5-1.12 2.5-2.5zm-1.666 0v6.666c0 .46-.374.834-.834.834h-6.666c-.46 0-.834-.374-.834-.834v-6.666c0-.46.374-.834.834-.834h6.666c.46 0 .834.374.834.834z" fill="#9598a1" data-original="#000000" class=""/></g></g></g></svg>
