  <svg xmlns="http://www.w3.org/2000/svg" xmlns:xlink="http://www.w3.org/1999/xlink" xmlns:svgjs="http://svgjs.com/svgjs" version="1.1" width="512" height="512" x="0" y="0" viewBox="0 0 512 512" style="enable-background:new 0 0 512 512" xml:space="preserve">
                                <g transform="matrix(0.8300000000000001,0,0,0.8300000000000001,43.51999740600584,43.519994812011646)">
                                    <g xmlns="http://www.w3.org/2000/svg">
                                    <path d="m473.91 199.735c4.702 18.267 8.09 37.193 8.09 56.265 0 124.072-101.928 226-226 226-72.168 0-140.711-34.913-183.078-91h32.078v-30h-71.719l-17.827 71.367 29.092 7.266 6.86-27.405c48.106 61.632 124.337 99.772 204.594 99.772 140.61 0 256-115.39 256-256 0-21.592-3.695-43.037-9.027-63.735z" fill="#c2c4c9" data-original="#000000"/>
                                    <path d="m8.027 319.735 29.063-7.471c-4.702-18.266-7.09-37.192-7.09-56.264 0-124.072 101.928-226 226-226 72.124 0 139.504 34.975 181.877 91h-31.877v30h71.719l17.827-71.367-29.092-7.266-6.874 27.462c-48.103-61.646-123.312-99.829-203.58-99.829-140.61 0-256 115.39-256 256 0 21.592 2.695 43.037 8.027 63.735z" fill="#c2c4c9" data-original="#000000"/>
                                    <path d="m256 351c-57.9 0-105-13.5-105-30v25c0 31.199 52.8 45 105 45s105-13.801 105-45v-25c0 16.5-47.1 30-105 30z" fill="#c2c4c9" data-original="#000000"/>
                                    <path d="m361 251c0 16.5-47.1 30-105 30s-105-13.5-105-30v40c0 16.5 47.1 30 105 30s105-13.5 105-30z" fill="#c2c4c9" data-original="#000000"/>
                                    <path d="m361 181c0 16.5-47.1 30-105 30s-105-13.5-105-30v40c0 16.5 47.1 30 105 30s105-13.5 105-30z" fill="#c2c4c9" data-original="#000000"/>
                                    <ellipse cx="256" cy="151" rx="105" ry="30" fill="#c2c4c9" data-original="#000000"/>
                                </g>
                            </g>
                        </svg>