<svg width="21" height="20" viewBox="0 0 21 20" fill="none" xmlns="http://www.w3.org/2000/svg">
<path d="M3.58341 6.66675H16.9167V17.5001C16.9167 17.9603 16.5437 18.3334 16.0834 18.3334H4.41675C3.95651 18.3334 3.58341 17.9603 3.58341 17.5001V6.66675ZM6.08342 4.16675V2.50008C6.08342 2.03985 6.45651 1.66675 6.91675 1.66675H13.5834C14.0437 1.66675 14.4167 2.03985 14.4167 2.50008V4.16675H18.5834V5.83342H1.91675V4.16675H6.08342ZM7.75008 3.33341V4.16675H12.7501V3.33341H7.75008ZM7.75008 10.0001V15.0001H9.41675V10.0001H7.75008ZM11.0834 10.0001V15.0001H12.7501V10.0001H11.0834Z" fill="#1C7BF8"/>
</svg>
