<svg viewBox="0 0 512 512" xml:space="preserve" xmlns="http://www.w3.org/2000/svg"><path d="M151.762 370.541a6.776 6.776 0 0 0-4.888 12.637c32.244 12.471 35.709 55.182 35.834 71.343H63.563c.126-16.167 3.593-58.872 35.835-71.343a6.776 6.776 0 0 0 3.874-8.763 6.771 6.771 0 0 0-8.761-3.874c-49.245 19.048-44.546 88.328-44.322 91.268a6.774 6.774 0 0 0 6.754 6.26h132.385a6.773 6.773 0 0 0 6.754-6.258c.224-2.942 4.925-72.222-44.32-91.27zM370.538 391.494a6.775 6.775 0 0 0 0-13.548h-53.607a6.776 6.776 0 0 0-6.774 6.775v76.574a6.775 6.775 0 0 0 6.774 6.773h53.607a6.775 6.775 0 0 0 6.774-6.773v-50.916a6.775 6.775 0 0 0-13.548 0v44.142h-40.059v-63.026h46.833zM280.767 300.421a6.775 6.775 0 0 0 0-13.548H227.16a6.774 6.774 0 0 0-6.774 6.774v167.648a6.773 6.773 0 0 0 6.774 6.773h53.607a6.774 6.774 0 0 0 6.774-6.773V319.864a6.775 6.775 0 0 0-13.548 0V454.52h-40.059v-154.1h46.833zM123.135 362.84c38.155 0 69.196-31.039 69.196-69.193s-31.041-69.195-69.196-69.195c-38.154 0-69.194 31.041-69.194 69.195s31.04 69.193 69.194 69.193zm0-124.84c30.685 0 55.647 24.963 55.647 55.646 0 30.682-24.963 55.646-55.647 55.646-30.683 0-55.646-24.964-55.646-55.646 0-30.683 24.963-55.646 55.646-55.646zM329.528 199.951V65.823a6.775 6.775 0 0 0-6.774-6.774h-44.913v-8.343a6.774 6.774 0 0 0-13.547 0v28.087a6.775 6.775 0 0 0 13.547 0v-6.196h38.139v38.207h-20.26c-3.74 0-6.774 3.034-6.774 6.774s3.034 6.774 6.774 6.774h20.26v75.599c0 10.193-8.294 18.485-18.487 18.485H182.847a6.775 6.775 0 0 0 0 13.548h114.646c17.664.001 32.035-14.37 32.035-32.033z" fill="#9598a1" class="fill-000000"></path><path d="M110.372 201.824a6.773 6.773 0 0 0 6.774-6.773v-70.698h144.341a6.775 6.775 0 0 0 0-13.548H117.146V72.597h19.091a6.773 6.773 0 1 0 0-13.547h-25.865a6.774 6.774 0 0 0-6.774 6.774v129.228a6.773 6.773 0 0 0 6.774 6.772zM216.563 85.567a6.775 6.775 0 0 0 6.774-6.774v-6.196h22.077a6.773 6.773 0 1 0 0-13.547h-22.077v-8.343a6.774 6.774 0 0 0-13.548 0v28.087a6.774 6.774 0 0 0 6.774 6.773z" fill="#9598a1" class="fill-000000"></path><path d="M162.058 85.567a6.774 6.774 0 0 0 6.774-6.774v-6.196h21.942a6.774 6.774 0 0 0 0-13.547h-21.942v-8.343a6.774 6.774 0 0 0-13.548 0v28.087a6.775 6.775 0 0 0 6.774 6.773zM162.84 167.837a6.773 6.773 0 0 0-6.774 6.773v11.561a6.774 6.774 0 0 0 6.774 6.774h34.73a6.774 6.774 0 0 0 6.774-6.774V151.44a6.775 6.775 0 0 0-6.774-6.774h-34.73a6.774 6.774 0 0 0 0 13.548h27.956v21.183h-21.182v-4.786a6.774 6.774 0 0 0-6.774-6.774zM235.556 167.837a6.773 6.773 0 0 0-6.774 6.773v11.561a6.774 6.774 0 0 0 6.774 6.774h34.73a6.776 6.776 0 0 0 6.774-6.774V151.44a6.776 6.776 0 0 0-6.774-6.774h-34.73a6.774 6.774 0 0 0 0 13.548h27.956v21.183H242.33v-4.786a6.774 6.774 0 0 0-6.774-6.774zM455.254 144.665a6.775 6.775 0 0 0-6.774 6.774V454.52h-40.06V133.183h46.834a6.774 6.774 0 0 0 0-13.547h-53.608a6.775 6.775 0 0 0-6.774 6.774v334.886a6.775 6.775 0 0 0 6.774 6.773h53.608a6.774 6.774 0 0 0 6.773-6.773V151.439a6.775 6.775 0 0 0-6.773-6.774z" fill="#9598a1" class="fill-000000"></path></svg>