<svg width="57" height="56" viewBox="0 0 57 56" fill="none" xmlns="http://www.w3.org/2000/svg">
<path d="M30.3973 16.6572L26.1548 8.17239C25.9786 7.82006 25.7078 7.52375 25.3727 7.31668C25.0375 7.10961 24.6514 6.99995 24.2574 7H7.28772C6.72514 7 6.1856 7.22348 5.78779 7.62129C5.38999 8.01909 5.1665 8.55863 5.1665 9.12121V17.6061C5.1665 18.1686 5.38999 18.7082 5.78779 19.106C6.1856 19.5038 6.72514 19.7273 7.28772 19.7273H28.4998C28.8615 19.7273 29.2171 19.6349 29.5329 19.4588C29.8488 19.2828 30.1144 19.0289 30.3045 18.7213C30.4946 18.4137 30.6029 18.0626 30.6192 17.7013C30.6354 17.3401 30.559 16.9807 30.3973 16.6572Z" fill="#376CFB"/>
<path d="M49.712 15.4844H5.1665V47.3026C5.1665 47.8651 5.38999 48.4047 5.78779 48.8025C6.1856 49.2003 6.72514 49.4238 7.28772 49.4238H49.712C50.2745 49.4238 50.8141 49.2003 51.2119 48.8025C51.6097 48.4047 51.8332 47.8651 51.8332 47.3026V17.6056C51.8332 17.043 51.6097 16.5035 51.2119 16.1057C50.8141 15.7079 50.2745 15.4844 49.712 15.4844Z" fill="#4294FF"/>
</svg>
