<svg width="48" height="48" viewBox="0 0 48 48" fill="none" xmlns="http://www.w3.org/2000/svg">
<rect width="48" height="48" rx="24" fill="#F3F3F3"/>
<path fill-rule="evenodd" clip-rule="evenodd" d="M34.54 23.7613C34.54 22.9459 34.4668 22.1618 34.3309 21.4091H23.5V25.8575H29.6891C29.4225 27.295 28.6123 28.5129 27.3943 29.3284V32.2138H31.1109C33.2855 30.2118 34.54 27.2636 34.54 23.7613Z" fill="#4285F4"/>
<path fill-rule="evenodd" clip-rule="evenodd" d="M23.5 34.9998C26.605 34.9998 29.2081 33.97 31.1109 32.2137L27.3943 29.3282C26.3645 30.0182 25.0472 30.4259 23.5 30.4259C20.5047 30.4259 17.9695 28.403 17.0652 25.6848H13.2231V28.6644C15.1154 32.4228 19.0045 34.9998 23.5 34.9998Z" fill="#34A853"/>
<path fill-rule="evenodd" clip-rule="evenodd" d="M17.0652 25.6851C16.8352 24.9951 16.7045 24.2581 16.7045 23.5001C16.7045 22.7422 16.8352 22.0051 17.0652 21.3151V18.3356H13.2232C12.4443 19.8881 12 21.6444 12 23.5001C12 25.3558 12.4443 27.1122 13.2232 28.6647L17.0652 25.6851Z" fill="#FBBC05"/>
<path fill-rule="evenodd" clip-rule="evenodd" d="M23.5 16.5739C25.1884 16.5739 26.7043 17.1541 27.8961 18.2936L31.1945 14.9952C29.2029 13.1395 26.5997 12 23.5 12C19.0045 12 15.1154 14.577 13.2231 18.3355L17.0652 21.315C17.9695 18.5968 20.5047 16.5739 23.5 16.5739Z" fill="#EA4335"/>
</svg>
