<svg width="1348" height="1080" viewBox="0 0 1348 1080" fill="none" xmlns="http://www.w3.org/2000/svg">
<g opacity="0.6">
<g opacity="0.6" filter="url(#filter0_f_471_3911)">
<circle cx="444.5" cy="455.5" r="337.5" fill="#0016E0"/>
</g>
<g filter="url(#filter1_f_471_3911)">
<circle cx="600" cy="668" r="203" fill="#FF8A65"/>
</g>
</g>
<g clip-path="url(#clip0_471_3911)">
<path d="M346.527 299.856H120.691C120.691 299.856 132.196 295.009 138.569 286.435C150.254 270.729 163.438 247.994 189.198 258.437C198.417 262.174 205.976 276.182 216.798 275.651C218.344 275.575 219.814 274.911 221.104 274.058C229.668 268.405 234.401 260.04 246.209 260.969C251.559 261.396 256.472 264.099 260.835 267.22C267.929 272.275 274.322 277.984 282.905 280.365C292.01 282.888 301.296 281.057 309.604 276.846C313.132 275.054 316.471 272.398 320.426 272.218C327.539 271.905 332.082 279.284 336.654 284.728C342.411 291.576 353.252 297.883 361.978 299.856C355.06 299.856 349.91 299.856 346.527 299.856Z" fill="url(#paint0_linear_471_3911)"/>
<path d="M205.255 613.301H99C99 613.301 104.416 611.024 107.413 606.984C112.914 599.596 119.117 588.897 131.238 593.81C135.572 595.565 139.129 602.156 144.222 601.91C144.953 601.872 145.635 601.559 146.242 601.16C150.273 598.495 152.502 594.569 158.051 595.005C160.574 595.204 162.878 596.475 164.936 597.945C168.275 600.326 171.282 603.01 175.322 604.129C179.609 605.315 183.972 604.461 187.879 602.479C189.539 601.635 191.104 600.383 192.973 600.307C196.321 600.165 198.455 603.626 200.608 606.197C203.311 609.421 208.413 612.39 212.52 613.31H205.255V613.301Z" fill="url(#paint1_linear_471_3911)"/>
<path d="M907.11 746.066H818.657C818.657 746.066 823.163 744.169 825.657 740.811C830.238 734.656 835.398 725.75 845.489 729.838C849.103 731.298 852.062 736.79 856.302 736.581C856.909 736.553 857.478 736.296 857.99 735.955C861.347 733.736 863.197 730.463 867.825 730.833C869.921 730.995 871.847 732.057 873.554 733.28C876.333 735.263 878.837 737.501 882.204 738.431C885.77 739.417 889.412 738.706 892.656 737.055C894.04 736.353 895.34 735.31 896.895 735.244C899.684 735.12 901.457 738.013 903.25 740.147C905.507 742.831 909.747 745.297 913.171 746.075H907.12L907.11 746.066Z" fill="url(#paint2_linear_471_3911)"/>
<path d="M165.183 794.133L151.412 782.325L154.978 764.446L168.749 776.254L165.183 794.133Z" fill="url(#paint3_linear_471_3911)"/>
<path d="M165.183 794.133L182.426 788.518L185.992 770.64L168.749 776.254L165.183 794.133Z" fill="url(#paint4_linear_471_3911)"/>
<path d="M168.74 776.283L186.011 770.62L172.23 758.803L154.968 764.418L168.74 776.283Z" fill="url(#paint5_linear_471_3911)"/>
<path d="M560.327 780.029C701.889 780.029 816.647 665.271 816.647 523.71C816.647 382.149 701.889 267.391 560.327 267.391C418.766 267.391 304.008 382.149 304.008 523.71C304.008 665.271 418.766 780.029 560.327 780.029Z" fill="url(#paint6_linear_471_3911)"/>
<path d="M744.346 337.51C796.985 318.674 835.265 316.085 848.154 334.058C876.219 373.191 773.397 494.972 618.505 606.064C463.604 717.157 315.285 775.496 287.22 736.363C274.037 717.972 289.743 681.343 326.164 636.149" stroke="white" stroke-width="0.95" stroke-miterlimit="10"/>
<path d="M769.594 374.936C821.417 356.612 859.061 354.25 871.828 372.043C899.892 411.176 797.071 532.957 642.179 644.05C487.277 755.142 338.958 813.481 310.894 774.348C297.957 756.309 312.829 720.723 347.779 676.705C348.462 675.851 350.368 673.319 351.061 672.465" stroke="white" stroke-width="0.95" stroke-miterlimit="10"/>
<path d="M906.683 601.796C908.353 603.066 908.514 606.765 908.381 608.463C907.774 616.307 901.761 624.634 896.203 629.889C893.225 632.706 889.716 634.953 887.003 638.017C880.999 644.789 879.074 655.231 871.24 659.765C869.125 660.988 866.602 661.671 864.202 661.207C860.408 660.476 856.349 656.474 854.689 653.069C853.769 651.181 854.452 650.783 852.565 648.858C850.829 647.084 848.695 645.586 846.713 644.097C838.907 638.226 830.191 633.199 824.14 625.336C823.798 624.9 823.466 624.416 823.4 623.866C823.333 623.193 823.684 622.557 824.045 621.979C827.744 615.909 832.021 610.189 836.783 604.916C837.181 604.47 837.608 604.015 838.148 603.759C839.979 602.905 841.895 604.622 843.213 606.149C848.676 612.456 854.765 618.223 861.357 623.335C871.515 620.869 880.743 615.539 889.545 609.905C893.936 607.097 898.849 603.436 903.781 601.672C904.341 601.473 904.938 601.302 905.536 601.35C905.982 601.388 906.352 601.539 906.674 601.786L906.683 601.796Z" fill="#EAECF9"/>
<path d="M906.683 601.796C908.353 603.066 908.514 606.765 908.381 608.463C907.774 616.307 901.761 624.634 896.203 629.889C893.225 632.706 889.716 634.953 887.003 638.017C880.999 644.789 879.074 655.231 871.24 659.765C869.125 660.988 866.602 661.671 864.202 661.207C860.408 660.476 856.349 656.474 854.689 653.069C853.769 651.181 854.452 650.783 852.565 648.858C850.829 647.084 848.695 645.586 846.713 644.097C838.907 638.226 830.191 633.199 824.14 625.336C823.798 624.9 823.466 624.416 823.4 623.866C823.333 623.193 823.684 622.557 824.045 621.979C827.744 615.909 832.021 610.189 836.783 604.916C837.181 604.47 837.608 604.015 838.148 603.759C839.979 602.905 841.895 604.622 843.213 606.149C848.676 612.456 854.765 618.223 861.357 623.335C871.515 620.869 880.743 615.539 889.545 609.905C893.936 607.097 898.849 603.436 903.781 601.672C904.341 601.473 904.938 601.302 905.536 601.35C905.982 601.388 906.352 601.539 906.674 601.786L906.683 601.796Z" fill="white"/>
<mask id="mask0_471_3911" style="mask-type:luminance" maskUnits="userSpaceOnUse" x="823" y="601" width="86" height="61">
<path d="M906.683 601.796C908.353 603.066 908.514 606.765 908.381 608.463C907.774 616.307 901.761 624.634 896.203 629.889C893.225 632.706 889.716 634.953 887.003 638.017C880.999 644.789 879.074 655.231 871.24 659.765C869.125 660.988 866.602 661.671 864.202 661.207C860.408 660.476 856.349 656.474 854.689 653.069C853.769 651.181 854.452 650.783 852.565 648.858C850.829 647.084 848.695 645.586 846.713 644.097C838.907 638.226 830.191 633.199 824.14 625.336C823.798 624.9 823.466 624.416 823.4 623.866C823.333 623.193 823.684 622.557 824.045 621.979C827.744 615.909 832.021 610.189 836.783 604.916C837.181 604.47 837.608 604.015 838.148 603.759C839.979 602.905 841.895 604.622 843.213 606.149C848.676 612.456 854.765 618.223 861.357 623.335C871.515 620.869 880.743 615.539 889.545 609.905C893.936 607.097 898.849 603.436 903.781 601.672C904.341 601.473 904.938 601.302 905.536 601.35C905.982 601.388 906.352 601.539 906.674 601.786L906.683 601.796Z" fill="white"/>
</mask>
<g mask="url(#mask0_471_3911)">
<path d="M867.304 644.694C873.298 643.385 880.184 645.898 883.162 651.257C883.304 651.523 883.446 651.798 883.456 652.092C883.465 652.537 883.19 652.936 882.915 653.296C879.131 658.389 875.005 663.729 869.058 665.939C866.26 666.982 863.178 667.238 860.247 666.698C858.218 666.318 856.207 665.512 854.756 664.042C847.652 656.787 860.788 646.116 867.294 644.694H867.304Z" fill="#50B7E0"/>
<path d="M898.252 630.894C897.616 630.875 896.962 630.685 896.307 630.296C894.524 629.244 893.5 627.271 892.855 625.308C891.025 619.683 891.707 613.461 893.775 607.922C894.904 604.906 896.573 601.777 899.229 599.832C901.277 598.324 905.28 598.248 907.518 599.472C908.799 600.174 909.69 601.445 910.278 602.791C912.592 608.15 910.458 614.306 908.154 619.674C906.74 622.965 902.804 631.055 898.271 630.885L898.252 630.894Z" fill="#50B7E0"/>
</g>
<path d="M852.878 618.498L839.362 636.433C837.589 638.785 834.317 639.411 831.803 637.875L813.754 626.873L839.438 598.03L852.356 610.996C854.367 613.016 854.585 616.212 852.878 618.488V618.498Z" fill="#991161"/>
<path d="M844.266 594.844C843.166 585.615 834.554 579.441 826.776 574.348C795.449 553.842 786.277 546.719 757.122 523.245H757.094C755.68 521.49 754.058 519.897 752.313 518.493C739.983 508.534 718.359 504.94 702.69 502.531C674.844 498.244 635.189 492.572 604.582 490.267C590.877 489.233 559.711 485.705 547.078 491.102C538.864 494.611 535.345 501.876 533.543 510.175C531.656 518.863 528.384 526.555 526.942 535.461C526.221 539.928 525.5 544.547 526.629 548.929C528.023 554.364 532.168 558.783 536.986 561.667C541.804 564.55 547.296 566.087 552.74 567.462C559.142 569.074 565.582 570.497 572.06 571.749C588.25 574.879 606.024 578.701 622.565 577.686C636.697 576.814 649.776 582.315 664.193 579.972C670.263 578.985 676.532 577.174 682.441 578.881C687.449 580.332 691.518 584.145 696.535 585.558C703.193 587.427 709.206 585.018 715.703 584.515C722.238 584.012 728.08 587.664 732.557 592.292C737.385 597.291 740.989 604.224 747.637 606.254C753.518 608.056 759.825 605.315 765.962 605.694C773.473 606.168 779.875 611.214 785.168 616.563C790.46 621.912 795.383 627.926 802.107 631.321C817.045 638.861 828.076 625.811 836.251 615.122C840.785 609.194 845.138 602.251 844.256 594.844H844.266Z" fill="#DA3095"/>
<path d="M729.351 568.713C726.278 569.994 723.025 570.828 719.715 571.179C718.008 571.36 716.026 571.312 714.906 570.003C713.816 568.723 714.053 566.797 714.517 565.176C715.665 561.164 717.799 557.522 720.056 554.012C724.505 547.117 729.494 540.582 734.473 534.066" stroke="black" stroke-width="1.18" stroke-miterlimit="10"/>
<path d="M725.652 788.821C727.369 790.623 729.124 792.378 731.002 794.047C732.225 795.129 733.487 796.191 734.473 797.5C735.725 799.16 736.474 801.142 737.309 803.048C740.344 810 745.048 816.554 751.422 820.794C757.795 825.043 766.502 828.827 774.232 828.372C777.191 828.201 780.501 827.186 781.725 824.493C782.36 823.07 782.294 821.439 782.057 819.902C780.966 812.827 776.783 806.586 771.88 801.369C766.976 796.153 761.305 791.724 756.316 786.593C750.151 780.257 745.077 772.868 741.368 764.845C740.059 762.018 738.893 759.068 736.854 756.726C734.814 754.383 731.647 752.714 728.621 753.416C725.852 754.061 723.869 756.451 722.304 758.822C719.592 762.948 715.125 769.976 715.257 775.135C715.352 778.882 718.861 781.547 721.185 784.041C722.684 785.644 724.154 787.256 725.652 788.831V788.821Z" fill="#EAECF9"/>
<path d="M725.652 788.821C727.369 790.623 729.124 792.378 731.002 794.047C732.225 795.129 733.487 796.191 734.473 797.5C735.725 799.16 736.474 801.142 737.309 803.048C740.344 810 745.048 816.554 751.422 820.794C757.795 825.043 766.502 828.827 774.232 828.372C777.191 828.201 780.501 827.186 781.725 824.493C782.36 823.07 782.294 821.439 782.057 819.902C780.966 812.827 776.783 806.586 771.88 801.369C766.976 796.153 761.305 791.724 756.316 786.593C750.151 780.257 745.077 772.868 741.368 764.845C740.059 762.018 738.893 759.068 736.854 756.726C734.814 754.383 731.647 752.714 728.621 753.416C725.852 754.061 723.869 756.451 722.304 758.822C719.592 762.948 715.125 769.976 715.257 775.135C715.352 778.882 718.861 781.547 721.185 784.041C722.684 785.644 724.154 787.256 725.652 788.831V788.821Z" fill="white"/>
<mask id="mask1_471_3911" style="mask-type:luminance" maskUnits="userSpaceOnUse" x="715" y="753" width="68" height="76">
<path d="M725.652 788.821C727.369 790.623 729.124 792.378 731.002 794.047C732.225 795.129 733.487 796.191 734.473 797.5C735.725 799.16 736.474 801.142 737.309 803.048C740.344 810 745.048 816.554 751.422 820.794C757.795 825.043 766.502 828.827 774.232 828.372C777.191 828.201 780.501 827.186 781.725 824.493C782.36 823.07 782.294 821.439 782.057 819.902C780.966 812.827 776.783 806.586 771.88 801.369C766.976 796.153 761.305 791.724 756.316 786.593C750.151 780.257 745.077 772.868 741.368 764.845C740.059 762.018 738.893 759.068 736.854 756.726C734.814 754.383 731.647 752.714 728.621 753.416C725.852 754.061 723.869 756.451 722.304 758.822C719.592 762.948 715.125 769.976 715.257 775.135C715.352 778.882 718.861 781.547 721.185 784.041C722.684 785.644 724.154 787.256 725.652 788.831V788.821Z" fill="white"/>
</mask>
<g mask="url(#mask1_471_3911)">
<path d="M769.224 816.707C772.819 815.844 775.683 813.216 778.358 810.674C778.803 810.248 779.287 809.802 779.885 809.679C780.852 809.47 781.782 810.134 782.455 810.855C784.333 812.884 785.234 815.644 785.575 818.376C785.793 820.064 785.803 821.847 785.111 823.403C784.418 824.958 783.1 826.144 781.753 827.178C775.18 832.195 759.066 838.369 752.38 830.241C749.686 826.959 751.118 822.815 754.106 820.301C758.706 816.422 763.903 817.997 769.224 816.716V816.707Z" fill="#50B7E0"/>
</g>
<path d="M710.354 780.798C711.672 781.784 713.047 782.704 714.404 783.605C716.756 785.17 719.269 786.782 722.096 786.877C724.4 786.953 726.601 785.995 728.649 784.952C733.98 782.239 738.931 778.787 743.312 774.728C744.46 773.665 745.627 772.47 745.968 770.934C746.357 769.236 745.646 767.491 744.915 765.907C743.445 762.72 741.833 759.59 740.078 756.555C738.067 753.084 736.626 754.089 733.572 755.114C730.157 756.261 726.79 757.418 723.499 758.898C717.296 761.696 711.34 765.328 706.076 769.483C705.08 770.27 703.591 770.877 703.572 772.338C703.572 773.21 703.98 774.026 704.454 774.756C705.972 777.146 708.077 779.072 710.354 780.779V780.798Z" fill="#991161"/>
<path d="M732.775 735.357C714.66 702.588 698.166 668.927 683.361 634.546L681.834 632.687C678.296 624.862 672.833 617.73 666.697 611.641C656.415 601.445 644.18 593.43 633.368 583.794C627.459 578.54 621.996 572.811 616.533 567.092C609.296 559.523 602.297 550.077 593.998 543.694C588.572 539.52 583.318 535.926 578.196 531.193C568.332 522.069 556.553 509.578 543.18 505.907C524.163 500.691 515.779 521.462 498.356 530.7C490.161 535.053 481.113 538.278 475.754 546.292C469.826 555.17 472.51 569.899 475.555 579.498C478.58 589.058 484.489 597.907 492.949 603.285C498.868 607.041 505.81 609.013 511.53 613.073C522.314 620.717 527.369 634.754 538.532 641.83C549.582 648.83 563.799 647.359 574.915 654.065C579.799 657.015 582.692 662.487 586.941 666.376C592.044 671.052 597.44 675.339 604.051 677.653C611.639 680.309 620.346 681.513 625.723 687.488C632.448 694.962 631.196 706.865 636.64 715.316C640.548 721.377 647.329 724.839 652.783 729.543C664.297 739.483 664.885 753.577 672.52 765.745C679.643 777.098 694.344 782.789 707.328 779.944C719.355 777.307 733.638 774.642 738.646 761.629C741.985 752.951 737.252 743.466 732.756 735.338L732.775 735.357Z" fill="#DA3095"/>
<path d="M519.127 602.934C519.515 601.948 543.056 584.942 509.756 548.654" stroke="black" stroke-width="1.18" stroke-miterlimit="10"/>
<path d="M626.823 577.62C616.846 568.828 606.318 564.55 586.969 547.99" stroke="black" stroke-width="1.18" stroke-miterlimit="10"/>
<path d="M650.449 673.955C663.386 668.226 674 657.423 679.491 644.392" stroke="black" stroke-width="1.18" stroke-miterlimit="10"/>
<mask id="mask2_471_3911" style="mask-type:luminance" maskUnits="userSpaceOnUse" x="472" y="488" width="373" height="293">
<path d="M844.266 594.844C843.166 585.615 834.554 579.441 826.776 574.348C795.449 553.842 786.277 546.719 757.122 523.245H757.094C755.68 521.49 754.059 519.897 752.313 518.493C739.983 508.534 718.359 504.94 702.69 502.531C674.844 498.244 635.189 492.572 604.582 490.267C590.877 489.233 559.711 485.705 547.078 491.102C540.543 493.89 536.986 499.059 534.9 505.234C521.289 506.951 513.028 522.913 498.356 530.709C490.161 535.063 481.113 538.287 475.754 546.302C469.826 555.179 472.51 569.909 475.555 579.507C478.58 589.068 484.489 597.917 492.949 603.294C498.868 607.05 505.81 609.023 511.53 613.082C522.314 620.727 527.369 634.764 538.532 641.839C549.582 648.839 563.799 647.369 574.915 654.074C579.799 657.024 582.692 662.497 586.941 666.385C592.044 671.061 597.44 675.348 604.051 677.662C611.639 680.318 620.346 681.523 625.723 687.498C632.448 694.972 631.196 706.875 636.64 715.326C640.548 721.386 647.329 724.848 652.783 729.552C664.297 739.492 664.885 753.586 672.52 765.755C679.643 777.108 694.344 782.798 707.328 779.953C719.355 777.316 733.638 774.651 738.646 761.638C741.985 752.96 737.252 743.476 732.756 735.347C714.641 702.578 698.147 668.918 683.342 634.536L681.815 632.677C678.277 624.853 672.814 617.72 666.678 611.631C656.396 601.435 644.161 593.421 633.349 583.785C631.111 581.793 628.939 579.716 626.805 577.61C639.334 577.857 651.227 582.068 664.183 579.962C670.253 578.976 676.522 577.164 682.431 578.872C687.439 580.323 691.508 584.136 696.525 585.549C703.183 587.417 709.197 585.008 715.694 584.505C722.228 584.003 728.071 587.654 732.548 592.283C737.375 597.281 740.979 604.214 747.628 606.244C753.508 608.037 759.816 605.305 765.952 605.684C773.464 606.159 779.866 611.204 785.158 616.554C790.451 621.903 795.373 627.916 802.098 631.312C817.036 638.852 828.066 625.801 836.242 615.112C840.776 609.184 845.129 602.242 844.247 594.834L844.266 594.844Z" fill="white"/>
</mask>
<g mask="url(#mask2_471_3911)">
<g style="mix-blend-mode:soft-light">
<path d="M568.114 487.128C568.114 487.128 551.384 583.329 468.679 604.252L468.347 581.556L568.124 487.137L568.114 487.128Z" fill="#152245"/>
</g>
</g>
<path d="M448.353 366.931C473.212 385.739 492.598 411.688 503.6 440.853C503.961 441.821 504.35 442.836 505.127 443.509C506.455 444.676 508.437 444.495 510.202 444.59C517.533 445.008 521.545 451.827 522.797 458.21C527.843 457.992 532.889 456.806 537.963 457.091C542.155 457.328 545.361 459.348 549.202 460.259C556.979 462.089 562.006 466.253 565.572 474.419C568.863 481.95 569.063 488.513 565.923 496.101C559.142 512.452 546.243 527.694 534.823 541.048C523.679 554.089 511.178 567.292 497.521 577.791C484.868 587.513 469.484 589.741 455.277 581.367C429.631 566.258 412.701 534.466 400.798 508.231C389.416 483.145 378.537 457.195 373.017 430.231C369.717 414.088 362.575 391.116 378.414 379.223C380.776 377.449 383.479 376.074 385.49 373.902C385.746 373.627 386.419 371.019 386.647 371.313C386.874 371.607 387.339 371.446 387.671 371.265C407 360.434 430.693 353.567 448.353 366.931Z" fill="#50B7E0"/>
<path d="M389.407 350.693C382.028 353.444 374.829 357.74 370.836 364.531C368.673 368.221 367.564 372.508 367.678 376.785C367.744 379.469 368.379 382.305 370.257 384.221C372.192 386.194 375.095 386.848 377.845 387.142C384.598 387.873 391.73 386.355 398.227 388.205C405.492 390.272 412.843 392.065 420.241 393.582C424.898 394.54 429.65 395.394 434.382 394.967C436.526 394.777 438.679 394.313 440.528 393.212C442.425 392.074 443.876 390.339 445.204 388.584C450.231 381.945 454.139 374.471 456.728 366.561C457.676 363.668 458.445 360.462 457.335 357.626C456.035 354.278 452.526 352.372 450.373 349.489C448.875 347.478 448.031 344.984 446.228 343.238C443.032 340.128 437.958 340.317 433.538 340.896C425.685 341.92 417.898 343.532 410.282 345.695C407.105 346.605 404.516 347.611 401.215 347.876C397.156 348.199 393.2 349.28 389.397 350.693H389.407Z" fill="#50B7E0"/>
<path d="M357.303 554.741C367.887 541.879 366.04 522.872 353.178 512.287C340.316 501.703 321.308 503.55 310.724 516.413C300.14 529.275 301.987 548.282 314.849 558.866C327.712 569.451 346.719 567.604 357.303 554.741Z" fill="#50B7E0"/>
<path d="M401.803 442.39C399.489 451.495 396.492 460.42 393.144 469.193C392.205 471.64 386.599 490.372 384.124 490.618C383.64 490.666 384.257 489.793 384.541 490.182C384.826 490.571 384.484 491.102 384.152 491.453C377.029 499.003 369.755 506.41 362.319 513.656C354.333 521.453 346.167 529.069 337.839 536.504C333.676 540.222 329.474 543.893 325.225 547.516C323.1 549.328 320.966 551.13 318.823 552.913C317.666 553.871 315.636 557.076 313.995 556.83C313.455 556.754 313.009 556.394 312.601 556.033C308.57 552.514 305.896 547.639 304.34 542.527C300.082 528.519 301.931 508.98 308.807 496.081C313.028 488.152 319.838 481.741 323.432 473.508C327.994 463.066 326.923 450.783 331.807 440.493C335.43 432.867 341.975 427.063 346.432 419.892C350.805 412.864 353.062 404.66 357.586 397.727C370.95 377.212 396.226 386.014 403.662 406.31C407.892 417.844 404.933 429.775 402.088 441.261C401.993 441.64 401.898 442.02 401.803 442.399V442.39Z" fill="#50B7E0"/>
<path d="M411.212 475.567C413.184 475.244 415.176 475.112 417.168 475.33C430.238 476.724 436.365 490.021 436.146 501.886C435.814 519.547 422.09 528.358 408.395 536.514C401.243 540.773 392.707 544.766 385.556 549.025C381.041 551.718 376.517 554.412 371.747 556.631C365.25 559.647 356.552 562.929 349.581 564.418C343.796 565.651 339.205 566.286 330.384 564.769C323.698 563.621 328.905 551.054 330.565 544.472C331.93 539.037 334.14 533.859 336.549 528.804C342.212 516.929 349.135 505.386 359.549 497.201C364.273 493.483 367.991 489.49 373.568 486.835C378.86 484.312 384.541 482.68 390.175 481.115C394.898 479.806 399.631 478.498 404.354 477.198C406.612 476.572 408.897 475.946 411.212 475.576V475.567Z" fill="#50B7E0"/>
<path d="M586.087 384.259C589.985 381.215 594.139 378.047 599.043 377.402C603.368 376.833 607.797 378.36 611.316 380.949C614.825 383.538 617.509 387.114 619.672 390.908C621.521 394.151 623.048 397.623 623.731 401.303C625.182 409.09 622.697 417.218 618.448 423.904C614.199 430.591 608.281 436.035 602.268 441.195C590.469 451.315 577.997 460.657 564.965 469.127C561.873 471.137 558.629 473.139 554.978 473.641C551.611 474.106 548.187 473.233 545 472.067C543.625 471.564 542.183 470.929 541.358 469.715C540.486 468.434 540.476 466.765 540.523 465.21C540.95 450.338 543.065 435.513 546.831 421.125C548.035 416.535 549.24 412.058 553.09 408.995C556.913 405.95 561.323 403.636 565.202 400.601C572.173 395.147 579.135 389.703 586.106 384.25L586.087 384.259Z" fill="#50B7E0"/>
<path d="M450.07 370.194C450.61 369.388 450.478 367.804 451.132 366.818C456.605 358.538 469.371 362.986 475.593 368.051C477.328 369.464 478.893 371.114 480.752 372.356C484.195 374.661 488.406 375.42 492.428 376.416C497.36 377.63 502.386 379.375 505.953 382.989C508.769 385.843 510.543 389.751 513.863 391.999C518.263 394.977 524.447 394.417 528.611 397.718C531.845 400.288 533.439 405.979 537.327 407.61C540.732 409.033 543.872 405.306 547.561 405.296C549.771 405.287 554.542 405.96 554.931 408.711C555.215 410.721 554.988 412.96 554.931 414.989C554.826 419.087 554.523 423.175 554.153 427.253C553.423 435.381 552.436 443.5 552.199 451.666C551.962 459.766 551.734 467.866 551.497 475.975C543.938 472.892 535.781 471.641 527.881 469.573C519.98 467.505 512.023 464.413 506.389 458.504C500.129 451.941 497.54 442.817 493.822 434.537C490.123 426.304 485.115 418.66 479.054 411.973C469.826 401.787 457.885 393.393 452.574 380.712C450.724 376.302 447.376 374.159 450.051 370.185L450.07 370.194Z" fill="#50B7E0"/>
<path d="M395.79 342.347C396.179 343.086 396.738 343.76 397.383 344.31C397.876 344.727 398.73 345.239 398.872 345.913C398.958 346.33 398.749 346.909 398.711 347.336C398.664 347.867 398.664 348.398 398.739 348.929C398.901 350.029 399.489 351.129 400.485 351.623C401.917 352.324 403.861 351.67 405.085 352.704C405.426 352.998 405.663 353.387 405.948 353.738C406.877 354.876 408.442 355.635 409.922 355.369C411.458 355.094 411.041 353.301 410.937 352.116C410.699 349.451 410.956 346.662 411.43 344.035C411.468 343.845 411.496 343.656 411.449 343.466C411.373 343.172 411.117 342.973 410.87 342.792C407.949 340.611 405.189 338.221 402.628 335.632C402.059 335.053 401.462 334.446 400.693 334.199C398.095 333.365 395.344 337.633 395.211 339.795C395.154 340.687 395.391 341.559 395.809 342.356L395.79 342.347Z" fill="#CDF239"/>
<path d="M401.054 314.491C401.054 314.491 394.927 334.058 408.518 344.719L409.438 329.942L407.266 313.875L401.063 314.501L401.054 314.491Z" fill="#CDF239"/>
<path d="M403.093 326.935C406.09 326.119 408.271 328.121 409.457 329.667L406.697 311.219L443.317 305.993C443.317 305.993 447.613 321.396 451.104 343.884C454.594 366.372 430.219 361.677 430.219 361.677C430.219 361.677 429.526 361.572 428.417 361.259L428.796 365.015C429.242 369.388 429.782 372.385 430.551 379.659C430.655 380.636 429.118 381.253 429.052 382.41L411.126 373.741C410.766 373.068 410.662 370.791 410.159 365.812L408.177 341.418C406.697 340.384 405.36 339.142 404.364 338.108C402.713 336.401 401.518 334.276 401.035 331.952C400.598 329.847 400.75 327.589 403.083 326.954L403.093 326.935Z" fill="#FFA486"/>
<path d="M428.417 361.26C427.411 361.023 426.453 360.805 425.562 360.454C423.665 359.704 421.578 358.301 419.814 356.859L417.253 354.412L418.847 357.988C420.801 362.123 424.111 365.215 428.455 366.619L428.976 366.789L428.417 361.279V361.26Z" fill="#291561"/>
<path d="M427.848 328.073C427.961 329.173 428.597 329.999 429.27 329.932C429.944 329.866 430.399 328.917 430.295 327.827C430.181 326.726 429.545 325.901 428.872 325.968C428.199 326.034 427.743 326.982 427.848 328.073Z" fill="#1D1D1B"/>
<path d="M442.852 326.556C442.966 327.656 443.601 328.481 444.275 328.415C444.948 328.348 445.403 327.4 445.299 326.309C445.185 325.209 444.55 324.384 443.876 324.45C443.203 324.516 442.748 325.465 442.852 326.556Z" fill="#1D1D1B"/>
<path d="M438.831 336.325C438.831 336.325 444.787 337.804 442.52 333.47C440.68 329.951 439.921 328.86 439.921 328.86" stroke="black" stroke-width="0.93" stroke-miterlimit="10"/>
<path d="M425.182 325.085C426.51 323.16 429.024 322.515 431.129 323.52L431.167 323.653C429.697 324.108 426.719 324.886 425.22 325.218L425.182 325.085Z" fill="black"/>
<path d="M440.642 322.563C442.501 321.14 445.081 321.301 446.779 322.904V323.037C445.242 323.018 442.169 322.838 440.642 322.695V322.563Z" fill="black"/>
<path d="M426.121 341.209C426.121 341.209 428.957 348.512 434.297 343.789" stroke="black" stroke-width="0.93" stroke-miterlimit="10"/>
<path d="M413.175 335.319C412.966 333.204 412.378 331.136 411.43 329.23C412.758 329.268 414.456 329.05 414.825 327.769C414.939 327.39 414.892 326.982 414.825 326.593C414.531 324.791 413.773 323.074 412.644 321.642C413.801 321.396 415.84 320.959 416.656 320.03C417.434 319.148 417.434 317.659 417.339 316.568C417.235 315.382 417.045 314.159 416.39 313.173C415.632 312.015 414.313 311.314 412.957 311.02C411.601 310.725 410.197 310.82 408.822 310.963C407.532 311.095 406.242 311.276 405.009 311.693C404.639 311.816 403.662 312.044 403.444 312.395C403.178 312.803 403.539 313.476 403.662 313.922C404.411 316.615 405.161 319.318 405.91 322.012C407.38 327.295 408.101 332.9 410.842 337.728C411.089 338.155 411.402 338.619 411.895 338.705C412.824 338.847 413.251 337.576 413.232 336.628C413.223 336.191 413.194 335.755 413.156 335.319H413.175Z" fill="#CDF239"/>
<path d="M452.65 302.417C452.232 301.886 451.73 301.421 451.142 301.061C449.795 300.245 448.002 299.847 447.319 298.424C446.978 297.713 447.006 296.897 446.912 296.129C446.523 293.056 444.569 291.197 441.477 291.273C440.424 291.301 439.438 291.567 438.413 291.776C437.474 291.975 437.171 291.719 436.298 291.244C434.667 290.362 432.609 290.324 430.94 291.121C429.403 291.861 428.568 293.113 427.895 294.611C427.203 296.157 426.567 296.224 424.945 296.755C423.949 297.087 422.935 297.352 421.958 297.732C419.188 298.813 416.428 299.913 413.697 301.089C411.25 302.142 408.812 303.223 406.469 304.485C405.094 305.225 403.368 306.04 402.41 307.33C399.242 311.551 401.49 314.5 401.49 314.5L412.919 313.343C418.771 312.547 424.623 311.74 430.475 310.944C432.192 310.707 434.989 309.673 436.659 310.365C437.968 310.906 438.774 312.234 440.14 312.812C441.562 313.41 443.545 314.614 445.109 313.874C447.737 312.632 447.073 310.052 450.563 310.299C452.64 310.451 454.015 308.601 454.034 306.638C454.053 305.13 453.56 303.593 452.631 302.398L452.65 302.417Z" fill="#CDF239"/>
<path d="M455.884 304.4C454.613 301.621 453.001 299.875 451.075 299.221C448.533 298.358 446.162 299.619 445.375 300.037C445.204 300.122 445.09 300.179 445.043 300.188L444.683 299.136C444.683 299.136 444.777 299.088 444.844 299.05C447.224 297.789 449.434 297.485 451.426 298.168C453.655 298.927 455.485 300.871 456.889 303.944L455.874 304.409L455.884 304.4Z" fill="#CDF239"/>
<path d="M412.369 332.037L398.73 335.29C397.478 335.594 396.359 334.854 396.236 333.64L395.685 328.215C395.562 327.001 396.482 325.777 397.734 325.483L411.373 322.23C412.625 321.927 413.744 322.666 413.867 323.88L414.417 329.306C414.541 330.52 413.621 331.743 412.369 332.037Z" fill="#3F2094"/>
<path d="M421.758 297.779C421.758 297.779 432.685 299.534 433.083 311.588L441.42 310.479C441.42 310.479 441.477 302.834 433.662 297.494C429.669 294.772 426.51 295.209 424.632 295.616C423.485 295.873 422.347 296.47 421.749 297.769L421.758 297.779Z" fill="#3F2094"/>
<path d="M448.562 307.756L438.385 309.103L418.581 311.73C412.046 312.594 407.427 318.834 408.319 325.597C409.22 332.359 415.3 337.177 421.834 336.305L451.815 332.331C458.35 331.468 462.969 325.227 462.077 318.464C461.176 311.702 455.097 306.884 448.562 307.756Z" fill="#291561"/>
<path d="M467.123 315.287C465.71 309.711 460.133 306.23 454.433 306.979L445.233 308.203L427.013 310.621C421.313 311.38 416.836 316.198 416.921 321.946C417.026 328.755 423.077 333.811 429.631 332.938L457.714 329.211C464.278 328.338 468.792 321.889 467.123 315.287Z" fill="white"/>
<path d="M434.494 312.063L455.103 309.328C459.785 308.706 464.088 312.001 464.709 316.683L464.755 317.031C465.377 321.713 462.082 326.016 457.4 326.637L436.791 329.372C432.109 329.994 427.806 326.699 427.185 322.017L427.138 321.669C426.517 316.987 429.811 312.684 434.494 312.063Z" stroke="#3F2094" stroke-width="0.88" stroke-miterlimit="10"/>
<path d="M414.863 292.79C413.867 292.914 412.9 293.255 412.056 293.805C411.363 294.251 410.747 294.839 409.979 295.133C408.841 295.569 407.57 295.304 406.365 295.19C404.629 295.029 402.846 295.19 401.243 295.863C399.641 296.546 398.237 297.779 397.544 299.373C396.786 301.118 396.9 303.176 395.951 304.826C394.509 307.311 391.095 308.07 389.559 310.508C389.056 311.304 388.79 312.224 388.591 313.144C388.278 314.614 388.117 316.189 388.695 317.574C389.407 319.281 390.896 319.063 391.977 320.153C393.163 321.339 391.939 323.35 392.129 324.782C392.3 326.024 393.02 327.267 394.196 327.703C395.391 328.139 396.738 327.646 397.772 326.906C398.379 326.479 398.929 325.958 399.622 325.673C400.57 325.275 401.689 325.36 402.609 324.905C404.155 324.127 404.61 322.022 405.217 320.552C406.014 318.617 406.697 316.682 407.712 314.832C409.571 311.447 411.999 308.364 414.873 305.784C416.049 304.722 417.31 303.745 418.629 302.872C419.454 302.322 420.374 301.81 421.019 301.032C421.607 300.331 422.299 300.075 423.143 299.686C423.21 299.657 423.286 299.619 423.323 299.553C423.57 299.145 421.768 296.727 421.512 296.271C420.734 294.915 419.596 293.805 418.126 293.217C417.102 292.809 415.963 292.677 414.863 292.809V292.79Z" fill="#CDF239"/>
<path d="M422.28 299.145C422.024 296.1 421.095 293.909 419.501 292.648C417.405 290.979 414.74 291.358 413.867 291.491C413.678 291.519 413.555 291.529 413.507 291.529L413.526 290.419C413.526 290.419 413.63 290.409 413.706 290.391C416.371 290.002 418.553 290.476 420.194 291.785C422.034 293.245 423.105 295.702 423.39 299.059L422.28 299.154V299.145Z" fill="#CDF239"/>
<path d="M385.622 316.359C385.423 312.215 386.457 309.104 388.686 307.121C392.148 304.048 397.174 304.855 397.383 304.892L397.203 305.993C397.203 305.993 392.48 305.243 389.426 307.965C387.462 309.711 386.561 312.518 386.741 316.312L385.632 316.369L385.622 316.359Z" fill="#CDF239"/>
<g style="mix-blend-mode:soft-light">
<path d="M442.539 489.547L434.449 493.644C434.449 493.644 440.604 502.493 436.146 512.737C431.689 522.98 413.393 533.489 413.393 533.489L422.138 548.427C422.138 548.427 460.152 524.678 442.88 494.697C442.88 494.697 455.874 497.428 457.648 484.273L442.548 489.556L442.539 489.547Z" fill="#232C45"/>
</g>
<mask id="mask3_471_3911" style="mask-type:luminance" maskUnits="userSpaceOnUse" x="301" y="385" width="105" height="181">
<path d="M403.747 406.301C399.954 395.944 391.55 386.346 379.951 385.426C362.101 384.013 350.729 402.82 343.236 416.279C328.488 442.769 314.564 473.736 305.952 502.816C301.893 516.54 300.138 528.433 304.425 542.518C304.985 544.358 305.696 546.17 306.559 547.896C311.046 557.911 320.853 565.12 332.566 565.717C336.227 565.907 339.129 565.679 343.663 565.423C355.917 564.731 363.571 550.096 364.225 537.121C364.595 529.837 362.347 523.027 358.307 517.593C359.673 516.284 361.039 514.965 362.395 513.647C369.821 506.401 377.105 498.994 384.228 491.444C384.513 491.14 384.807 490.714 384.702 490.353C387.368 488.067 392.338 471.479 393.22 469.184C396.568 460.41 399.574 451.486 401.879 442.38C401.974 442.001 402.069 441.622 402.163 441.242C405.009 429.756 407.968 417.825 403.738 406.292L403.747 406.301Z" fill="white"/>
</mask>
<g mask="url(#mask3_471_3911)">
<g style="mix-blend-mode:soft-light">
<path d="M341.813 559.249C341.434 564.835 340.182 571.38 336.331 573.741C332.67 575.98 327.71 575.164 323.707 573.438C314.611 569.511 308.153 561.649 303.334 553.463C297.966 544.349 293.983 534.02 294.912 523.511C295.263 519.509 296.875 514.463 300.508 512.168C303.903 510.015 308.978 511.599 312.487 512.68C322.341 515.696 331.001 522.572 336.16 531.497C339.983 538.127 341.898 545.772 341.965 553.407C341.984 554.99 341.965 557.039 341.813 559.249Z" fill="#152245"/>
</g>
</g>
<path d="M344.308 502.01C357.501 492.876 361.674 490.211 376.27 483.458C389.776 477.208 407.807 469.98 422.858 473.698" stroke="black" stroke-width="1.18" stroke-miterlimit="10"/>
<path d="M402.657 358.935C400.428 358.66 398 360.187 398.332 362.644C398.73 365.612 402.059 368.296 404.316 369.956C407.626 372.384 411.363 374.158 415.024 375.979C418.913 377.923 425.144 380.712 429.024 382.656C431.414 378.976 434.913 371.028 435.938 366.76" stroke="black" stroke-width="1.18" stroke-miterlimit="10"/>
<path d="M415.167 532.36C419.311 529.818 425.277 525.607 429.052 522.467C434.581 517.877 437.901 511.712 437.104 504.39" stroke="black" stroke-width="1.18" stroke-miterlimit="10"/>
<path d="M396.093 473.338C399.754 468.804 399.365 468.216 394.889 464.489C398.407 456.228 400.835 451.277 401.793 442.39" stroke="black" stroke-width="1.18" stroke-miterlimit="10"/>
<path d="M465.084 390.414C471.287 396.655 477.205 403.18 482.82 409.952C485.049 412.636 487.638 414.875 489.867 417.464C492.978 421.087 494.751 427.65 499.389 428.997C504.426 430.467 508.75 431.672 511.008 437.078C511.33 437.846 511.596 438.681 512.203 439.259C512.876 439.904 513.834 440.113 514.735 440.312C533.183 444.409 550.094 455.08 561.75 469.951" stroke="black" stroke-width="1.18" stroke-miterlimit="10"/>
<path d="M536.796 440.502C539.632 433.161 543.056 426.057 547.03 419.266C548.481 416.791 550.369 411.422 545.399 412.115C542.373 412.542 539.812 415.928 538.228 418.261" stroke="black" stroke-width="1.18" stroke-miterlimit="10"/>
<path d="M429.46 387.93C431.651 389.362 432.865 391.942 433.32 394.521C433.766 397.101 433.557 399.747 433.5 402.365C433.329 409.46 434.306 416.744 437.702 422.975C441.088 429.206 447.177 434.233 454.214 435.087" stroke="black" stroke-width="1.18" stroke-miterlimit="10"/>
<path d="M437.085 387.095C440.348 387.901 442.805 390.528 444.977 393.098C448.609 397.414 452.014 401.966 456.235 405.713C460.455 409.459 465.653 412.409 471.277 412.76C476.902 413.111 482.934 410.379 485.362 405.277" stroke="black" stroke-width="1.18" stroke-miterlimit="10"/>
<path d="M378.509 384.724C390.63 384.088 402.856 385.625 414.436 389.248" stroke="black" stroke-width="1.18" stroke-miterlimit="10"/>
<path d="M458.245 362.824C455.428 366.267 451.777 371.844 448.097 374.329" stroke="black" stroke-width="1.18" stroke-miterlimit="10"/>
<path d="M455.628 506.031C454.717 511.494 460.285 516.35 465.814 516.625C479.69 517.299 491.242 502.389 497.416 491.899C505.165 478.735 506.797 466.338 507.868 451.097" stroke="black" stroke-width="1.18" stroke-miterlimit="10"/>
<path d="M593.865 346.14C593.713 355.501 595.42 364.777 596.425 374.091C597.07 380.104 597.251 386.762 593.542 391.533C591.531 394.122 588.61 395.82 586.182 398.02C583.754 400.221 581.715 403.398 582.388 406.604C582.635 407.77 583.308 408.927 584.408 409.383C586.372 410.198 588.401 408.529 590.033 407.163C594.803 403.161 600.333 401.653 606.441 401.169C609.666 400.913 613.147 400.353 615.366 397.992C615.84 397.489 616.239 396.92 616.77 396.474C617.614 395.782 618.705 395.478 619.738 395.118C622.309 394.226 624.794 392.756 626.235 390.452C627.715 388.099 627.933 385.15 627.611 382.39C627.117 378.065 625.391 373.892 622.697 370.477C617.614 372.014 612.388 372.184 607.095 372.621L607.342 372.317C605.455 364.815 602.979 357.123 600.912 349.659C600.561 348.378 600.181 347.079 599.46 345.96C598.73 344.85 597.573 343.939 596.245 343.835C594.917 343.74 593.893 344.784 593.874 346.111L593.865 346.14Z" fill="#FFA486"/>
<path d="M607.826 365.697C609.154 364.066 611.117 362.747 613.203 362.928C615.167 363.098 616.77 364.521 618.192 365.887C621.891 369.434 625.476 373.105 628.663 377.117C629.166 377.752 629.688 378.463 629.697 379.269C629.706 380.493 628.511 381.441 627.297 381.669C625.012 382.096 622.802 380.692 621.019 379.203C618.771 377.316 617.177 375.741 615.413 373.389C613.981 375.447 612.113 376.927 610.681 378.985C608.983 376.955 606.251 374.669 605.293 372.156C604.449 369.946 606.517 367.31 607.816 365.707L607.826 365.697Z" fill="#FFA486"/>
<path d="M616.561 367.85C617.766 366.276 619.568 364.976 621.54 365.09C623.39 365.194 624.936 366.484 626.311 367.727C629.887 370.951 633.368 374.309 636.479 377.989C636.972 378.577 637.484 379.222 637.512 379.99C637.56 381.147 636.45 382.067 635.321 382.314C633.187 382.779 631.072 381.527 629.346 380.17C627.174 378.463 625.201 376.5 623.475 374.337C622.185 376.31 620.905 378.283 619.615 380.265C617.955 378.406 615.328 376.329 614.351 373.996C613.498 371.938 615.366 369.405 616.542 367.859L616.561 367.85Z" fill="#FFA486"/>
<path d="M623.087 369.33C623.722 367.774 624.917 366.314 626.558 365.963C628.094 365.64 629.65 366.352 631.054 367.063C634.696 368.912 638.29 370.895 641.657 373.218C642.188 373.588 642.748 374.006 642.947 374.632C643.241 375.571 642.539 376.566 641.667 377.022C640.016 377.875 638.006 377.316 636.298 376.585C634.136 375.665 632.087 374.499 630.2 373.105C629.583 375.011 628.967 376.908 628.35 378.814C626.586 377.657 623.969 376.547 622.65 374.84C621.493 373.351 622.461 370.857 623.087 369.32V369.33Z" fill="#FFA486"/>
<path d="M614.93 375.049C614.93 375.049 619.435 382.513 627.298 381.66" stroke="black" stroke-width="1.18" stroke-miterlimit="10"/>
<path d="M629.526 379.554C629.526 379.554 630.228 378.985 629.289 377.951C628.35 376.917 619.7 366.939 619.7 366.939" stroke="black" stroke-width="1.18" stroke-miterlimit="10"/>
<path d="M625.505 367.224L634.307 375.428" stroke="black" stroke-width="1.18" stroke-miterlimit="10"/>
<path d="M616.011 391.959C615.338 387.53 611.392 385.244 607.617 383.935C610.282 382.664 613.242 382.029 615.907 380.635" stroke="black" stroke-width="1.18" stroke-miterlimit="10"/>
<path d="M425.837 480.337L434.439 475.471C434.439 475.471 440.329 452.205 449.453 453.732C449.453 453.732 452.981 447.492 457.316 450.498C457.316 450.498 458.881 445.016 462.997 448.222L483.503 427.868C483.503 427.868 491.261 428.997 479.216 442.939C477.432 444.997 476.209 448.146 474.729 450.432C473.525 452.291 472.254 454.434 472.074 456.682C471.979 457.858 472.112 459.034 472.273 460.201C472.652 462.857 474.056 465.408 475.071 467.883L476.949 472.474C476.949 472.474 466.146 487.507 457.648 484.273C457.648 484.273 450.696 494.383 442.548 489.556L434.249 494.63C430.645 496.83 425.96 495.977 423.371 492.638C420.269 488.645 421.436 482.831 425.837 480.346V480.337Z" fill="#FFA486"/>
<path d="M476.949 472.464L489.781 460.903C489.781 460.903 490.635 457.109 484.366 458.124C480.325 458.778 473.06 463.985 473.06 463.985L476.949 472.455V472.464Z" fill="#FFA486"/>
<path d="M451.492 477.89C452.64 478.971 454.565 479.625 456.111 479.749C458.293 479.929 460.019 477.719 460.36 475.765C460.654 474.115 459.962 472.616 459.421 471.099C458.795 469.363 458.131 467.646 457.316 465.987C455.533 462.354 453.313 458.959 451.189 455.516" stroke="black" stroke-width="1.23" stroke-miterlimit="10"/>
<path d="M465.359 451.067C467.398 454.197 469.171 457.469 470.291 461.045C471.353 464.441 472.747 468.927 470.831 472.237C470.433 472.92 469.921 473.536 469.238 473.935C468.555 474.333 467.711 474.466 466.971 474.191C466.838 475.632 465.89 476.979 464.562 477.586C463.244 478.193 461.603 478.032 460.417 477.197" stroke="black" stroke-width="1.23" stroke-miterlimit="10"/>
<path d="M459.25 452.784C459.25 452.784 465.852 462.326 467.284 474.286" stroke="black" stroke-width="1.23" stroke-miterlimit="10"/>
<path d="M452.336 473.176C452.574 476.837 452.08 479.853 448.258 481.019" stroke="black" stroke-width="1.23" stroke-miterlimit="10"/>
<path d="M420.136 478.581C418.723 479.264 417.291 480.023 416.314 481.256C414.873 483.068 414.512 485.79 414.228 488.028C413.374 494.781 416.76 500.311 422.925 503.089C425.021 504.038 426.785 503.953 428.891 503.146C431.48 502.16 433.974 500.946 436.346 499.523C438.157 498.442 440.775 497.275 441.581 495.17C442.065 493.918 441.866 492.514 441.609 491.205C441.562 490.987 441.486 490.731 441.268 490.693C441.145 490.665 441.012 490.731 440.898 490.798C439.76 491.414 437.104 493.595 435.938 492.713C434.695 491.765 433.728 489.716 433.054 488.351C431.508 485.221 430.731 481.692 430.949 478.202C431.139 475.205 430.674 474.294 427.8 475.29C425.182 476.201 422.621 477.386 420.136 478.6V478.581Z" fill="#38758F"/>
<path d="M176.545 450.29L215.536 444.466L189.302 402.27L176.545 450.29Z" fill="url(#paint7_linear_471_3911)"/>
<path d="M215.536 444.467L176.545 450.29L202.78 492.487L215.536 444.467Z" fill="url(#paint8_linear_471_3911)"/>
<path d="M196.046 447.378L189.302 402.27L215.536 444.466L196.046 447.378Z" fill="url(#paint9_linear_471_3911)"/>
<path d="M196.046 447.379L202.78 492.487L215.536 444.467L196.046 447.379Z" fill="url(#paint10_linear_471_3911)"/>
<path d="M265.633 432.061L244.236 500.397L173.833 515.297L195.22 446.961L265.633 432.061Z" fill="url(#paint11_linear_471_3911)" stroke="white" stroke-width="0.88" stroke-linejoin="round"/>
<path d="M265.634 432.061L218.391 378.255L147.988 393.155L195.22 446.961L265.634 432.061Z" fill="url(#paint12_linear_471_3911)" stroke="white" stroke-width="0.88" stroke-linejoin="round"/>
<path d="M195.344 446.942L147.883 393.127L126.477 461.51L173.757 515.364L195.344 446.942Z" fill="url(#paint13_linear_471_3911)" stroke="white" stroke-width="0.88" stroke-linejoin="round"/>
<path d="M506.034 897.331C513.252 890.532 511.212 876.643 501.479 866.311C491.745 855.978 478.003 853.113 470.786 859.913C463.568 866.712 465.608 880.6 475.341 890.933C485.075 901.265 498.817 904.13 506.034 897.331Z" fill="url(#paint14_linear_471_3911)"/>
<path d="M475.327 890.989C485.058 901.327 498.801 904.191 506.019 897.391L501.846 901.327C494.628 908.127 480.885 905.263 471.154 894.925C461.423 884.587 459.383 870.701 466.601 863.901L470.774 859.965C463.557 866.765 465.596 880.651 475.327 890.989Z" fill="url(#paint15_linear_471_3911)"/>
<path d="M498.318 869.336C490.929 861.493 480.496 859.311 475.014 864.48C469.532 869.64 471.078 880.187 478.466 888.03C485.855 895.874 496.288 898.056 501.77 892.886C507.252 887.727 505.706 877.18 498.318 869.336Z" fill="url(#paint16_linear_471_3911)"/>
<path d="M491.574 889.699L490.54 887.12L487.723 887.186C487.097 887.195 486.471 887.034 485.845 886.693C485.219 886.351 484.641 885.887 484.129 885.299C483.616 884.71 483.218 884.056 482.934 883.354L482.27 881.694L485.608 881.619L486.225 883.146L488.909 883.089L487.572 879.741L484.774 879.807C484.157 879.817 483.541 879.665 482.915 879.333C482.289 879.001 481.72 878.536 481.188 877.948C480.667 877.36 480.249 876.687 479.955 875.928L478.457 872.181C478.163 871.442 478.04 870.778 478.077 870.18C478.115 869.583 478.315 869.108 478.666 868.758C479.016 868.407 479.51 868.217 480.136 868.207L482.953 868.141L481.919 865.561L485.267 865.485L486.301 868.065L489.098 868.008C489.724 867.999 490.35 868.151 490.976 868.482C491.602 868.814 492.171 869.27 492.684 869.858C493.196 870.446 493.604 871.1 493.898 871.84L494.571 873.528L491.223 873.604L490.597 872.049L487.913 872.106L489.326 875.643L492.124 875.586C492.75 875.577 493.376 875.738 494.002 876.08C494.628 876.421 495.197 876.876 495.7 877.436C496.202 878.005 496.591 878.621 496.857 879.285L498.355 883.032C498.64 883.734 498.754 884.388 498.706 884.995C498.659 885.602 498.469 886.086 498.118 886.446C497.767 886.807 497.293 886.996 496.677 887.006L493.879 887.063L494.913 889.642L491.564 889.718L491.574 889.699ZM485.959 875.7L484.546 872.162L481.862 872.219L483.275 875.757L485.959 875.7ZM492.276 883.013L494.96 882.956L493.623 879.608L490.938 879.665L492.276 883.013Z" fill="url(#paint17_linear_471_3911)"/>
<path d="M532.272 868.615L518.254 914.226L471.381 924.394L485.409 878.783L532.272 868.615Z" fill="url(#paint18_linear_471_3911)" stroke="white" stroke-width="0.66" stroke-linejoin="round"/>
<path d="M532.272 868.615L500.603 832.915L453.74 843.092L485.409 878.782L532.272 868.615Z" fill="url(#paint19_linear_471_3911)" stroke="white" stroke-width="0.66" stroke-linejoin="round"/>
<path d="M485.485 878.763L453.674 843.063L439.637 888.713L471.334 924.441L485.485 878.763Z" fill="url(#paint20_linear_471_3911)" stroke="white" stroke-width="0.66" stroke-linejoin="round"/>
<path d="M932.984 495.768C932.984 495.768 920.331 477.89 936.417 457.991C952.503 438.083 969.338 438.795 969.338 438.795C969.338 438.795 981.677 438.425 990.299 443.812L985.765 433.73C985.765 433.73 971.311 416.753 942.933 429.101C933.828 433.066 928.829 437.78 923.907 442.683C920.749 445.823 917.571 450.081 915.731 453.202C910.648 461.823 910.705 469.003 910.705 469.003C910.705 469.003 907.869 477.264 916.5 489.281C916.5 489.281 920.35 496.337 932.974 495.759L932.984 495.768Z" fill="url(#paint21_radial_471_3911)"/>
<path d="M949.619 489.612L936.967 487.346C934.89 486.976 933.486 484.965 933.856 482.888C934.226 480.811 936.237 479.407 938.314 479.777L950.966 482.044C953.043 482.414 954.447 484.424 954.077 486.501C953.707 488.579 951.697 489.982 949.619 489.612Z" fill="url(#paint22_linear_471_3911)"/>
<path d="M951.232 491.007L943.104 489.556L934.975 488.104C934.975 488.104 929 489.233 928.687 494.82L941.178 499.476L954.808 499.495C956.448 494.146 951.232 491.016 951.232 491.016V491.007Z" fill="url(#paint23_linear_471_3911)"/>
<path d="M946.829 489.166L939.715 487.894L939.521 488.977L946.635 490.249L946.829 489.166Z" fill="url(#paint24_linear_471_3911)"/>
<path d="M979.847 496.214C979.6 495.92 979.458 495.749 979.458 495.749C979.458 495.749 992.689 486.9 998.494 473.053C1004.3 459.206 1003.16 449.361 998.75 439.99C994.349 430.619 978.993 422.425 965.298 424.246L974.204 425.687L980.89 429.016L989.711 440.293L991.086 451.22L985.443 469.895L972.762 484.89L954.855 494.848L937.584 497.902L925.178 495.92L918.179 491.292L913.341 484.975L910.411 480.84C910.411 480.84 912.45 493.53 923.945 503.034C923.945 503.034 928.649 507.548 930.186 515.705C931.049 520.286 932.33 525.569 935.858 528.879C938.703 531.544 942.781 531.667 946.405 530.918C948.339 530.52 950.217 529.865 952.038 529.097C953.025 528.68 956.487 527.798 956.249 526.527C956.43 526.764 956.619 526.982 956.809 527.21C959.417 514.899 967.84 501.336 979.847 496.224V496.214Z" fill="url(#paint25_linear_471_3911)"/>
<path d="M994.813 516.425C994.757 516.378 994.69 516.34 994.633 516.293C993.846 515.733 992.973 515.24 992.404 514.472C991.427 513.153 991.494 511.304 990.669 509.881C989.322 507.529 986.012 506.969 984.456 504.74C983.622 503.545 983.413 502.047 982.958 500.672C982.389 498.964 981.165 495.939 979.145 496.527C977.504 497.011 975.806 498.272 974.422 499.239C971.311 501.402 968.589 504.095 966.246 507.074C961.637 512.916 958.345 519.925 956.799 527.209C958.829 529.647 961.57 531.752 963.828 533.934C965.355 535.413 966.91 536.874 968.418 538.373C968.418 538.373 974.678 544.613 981.99 544.936C989.303 545.258 995.458 541.759 997.393 533.991C998.844 528.177 1000.46 520.58 994.813 516.425Z" fill="url(#paint26_linear_471_3911)"/>
<path d="M987.804 434.109C977.096 419.655 951.943 420.138 931.618 435.19C911.293 450.242 903.496 474.162 914.204 488.617C924.912 503.071 950.065 502.587 970.391 487.536C990.716 472.484 998.512 448.564 987.804 434.109ZM968.494 484.975C949.316 499.173 925.586 499.628 915.485 485.999C905.384 472.36 912.744 449.797 931.922 435.589C951.099 421.381 974.83 420.935 984.931 434.564C995.032 448.203 987.672 470.767 968.494 484.965V484.975Z" fill="url(#paint27_linear_471_3911)"/>
<path d="M950.284 517.611C950.331 520.731 949.354 523.813 947.808 526.517C946.717 528.432 945.304 530.225 943.455 531.43C941.605 532.634 939.557 533.336 937.366 533.042C933.543 532.52 930.736 529.03 929.513 525.378C928.28 521.727 928.232 517.791 927.549 513.997C926.98 510.858 926.326 506.324 930.385 506.77C934.691 507.244 940.249 508.667 943.322 509.871C947.41 511.474 950.208 512.404 950.293 517.611H950.284Z" fill="url(#paint28_radial_471_3911)"/>
<path d="M687.562 305.291L689.222 372.963C726.914 350.968 734.473 328.566 734.473 328.566C734.473 328.566 736 300.198 687.562 305.291Z" fill="url(#paint29_linear_471_3911)" stroke="white" stroke-width="0.96" stroke-miterlimit="10"/>
<g style="mix-blend-mode:lighten">
<path d="M688.862 372.962C681.663 377.164 673.355 381.356 663.794 385.368C611.402 407.372 521.213 424.16 367.308 409.554V593.734C367.308 593.734 698.242 652.443 734.112 516.748V328.565C734.112 328.565 728.754 344.462 704.521 362.624C699.987 366.02 694.799 369.491 688.871 372.953L688.862 372.962Z" fill="url(#paint30_linear_471_3911)" style="mix-blend-mode:lighten"/>
<path d="M688.862 372.962C681.663 377.164 673.355 381.356 663.794 385.368C611.402 407.372 521.213 424.16 367.308 409.554V593.734C367.308 593.734 698.242 652.443 734.112 516.748V328.565C734.112 328.565 728.754 344.462 704.521 362.624C699.987 366.02 694.799 369.491 688.871 372.953L688.862 372.962Z" stroke="white" stroke-width="0.96" stroke-miterlimit="10"/>
</g>
<g style="mix-blend-mode:lighten">
<path d="M513.91 483.894C441.78 487.773 399.678 479.844 399.678 479.844V567.082C399.678 567.082 464.458 576.965 513.91 573.466V483.903V483.894Z" fill="url(#paint31_linear_471_3911)" style="mix-blend-mode:lighten"/>
<path d="M513.91 483.894C441.78 487.773 399.678 479.844 399.678 479.844V567.082C399.678 567.082 464.458 576.965 513.91 573.466V483.903V483.894Z" stroke="white" stroke-width="0.96" stroke-miterlimit="10"/>
</g>
<mask id="mask4_471_3911" style="mask-type:luminance" maskUnits="userSpaceOnUse" x="399" y="480" width="115" height="95">
<path d="M513.607 484.235C441.667 488.104 399.688 480.194 399.688 480.194V567.196C399.688 567.196 464.297 577.06 513.607 573.56V484.244V484.235Z" fill="white"/>
</mask>
<g mask="url(#mask4_471_3911)">
<path d="M515.247 550.286L479.68 518.323C476.2 515.193 470.964 515.07 467.341 518.029L447.158 534.475L435.653 524.478C432.277 521.538 427.307 521.367 423.722 524.051L398.047 543.324" fill="url(#paint32_linear_471_3911)"/>
<path d="M515.247 550.286L479.68 518.323C476.2 515.193 470.964 515.07 467.341 518.029L447.158 534.475L435.653 524.478C432.277 521.538 427.307 521.367 423.722 524.051L398.047 543.324" stroke="white" stroke-width="0.79" stroke-linecap="round" stroke-linejoin="round"/>
<path d="M515.247 593.611L398.047 582.969V543.314C432.343 547.839 466.905 550.153 501.504 550.248L515.247 550.286V593.611Z" fill="url(#paint33_linear_471_3911)" stroke="white" stroke-width="0.79" stroke-linecap="round" stroke-linejoin="round"/>
<path d="M415.186 511.142C419.027 514.007 424.177 513.409 426.7 509.796C429.213 506.182 428.142 500.937 424.31 498.063C420.469 495.199 415.319 495.796 412.796 499.41C410.282 503.024 411.354 508.269 415.186 511.142Z" fill="url(#paint34_linear_471_3911)" stroke="white" stroke-width="0.79" stroke-linecap="round" stroke-linejoin="round"/>
</g>
<path d="M539.348 567.785L577.305 484.416C577.305 484.416 642.805 547.289 643.99 548.427C645.176 549.565 673.165 484.34 673.165 484.34L698.555 508.716L718.178 465.608" stroke="white" stroke-width="1.06" stroke-miterlimit="10"/>
<g style="mix-blend-mode:lighten">
<path d="M580.178 484.236C580.472 486.522 579.439 488.788 577.874 489.301C576.309 489.803 574.801 488.362 574.516 486.076C574.232 483.79 575.256 481.523 576.821 481.011C578.386 480.508 579.894 481.95 580.178 484.236Z" fill="url(#paint35_linear_471_3911)" style="mix-blend-mode:lighten"/>
<path d="M580.178 484.236C580.472 486.522 579.439 488.788 577.874 489.301C576.309 489.803 574.801 488.362 574.516 486.076C574.232 483.79 575.256 481.523 576.821 481.011C578.386 480.508 579.894 481.95 580.178 484.236Z" stroke="white" stroke-width="0.72" stroke-miterlimit="10"/>
</g>
<g style="mix-blend-mode:lighten">
<path d="M540.761 570.934C541.121 573.732 539.86 576.492 537.944 577.108C536.028 577.725 534.198 575.961 533.837 573.172C533.477 570.374 534.738 567.614 536.654 566.998C538.57 566.381 540.4 568.145 540.761 570.934Z" fill="url(#paint36_linear_471_3911)" style="mix-blend-mode:lighten"/>
<path d="M540.761 570.934C541.121 573.732 539.86 576.492 537.944 577.108C536.028 577.725 534.198 575.961 533.837 573.172C533.477 570.374 534.738 567.614 536.654 566.998C538.57 566.381 540.4 568.145 540.761 570.934Z" stroke="white" stroke-width="0.88" stroke-miterlimit="10"/>
</g>
<g style="mix-blend-mode:lighten">
<path d="M646.988 547.488C647.282 549.774 646.248 552.04 644.683 552.553C643.118 553.055 641.61 551.614 641.325 549.328C641.041 547.042 642.065 544.775 643.63 544.263C645.195 543.76 646.703 545.202 646.988 547.488Z" fill="url(#paint37_linear_471_3911)" style="mix-blend-mode:lighten"/>
<path d="M646.988 547.488C647.282 549.774 646.248 552.04 644.683 552.553C643.118 553.055 641.61 551.614 641.325 549.328C641.041 547.042 642.065 544.775 643.63 544.263C645.195 543.76 646.703 545.202 646.988 547.488Z" stroke="white" stroke-width="0.72" stroke-miterlimit="10"/>
</g>
<g style="mix-blend-mode:lighten">
<path d="M676.096 483.676C676.39 485.962 675.356 488.229 673.791 488.741C672.226 489.244 670.718 487.802 670.433 485.516C670.149 483.231 671.173 480.964 672.738 480.452C674.303 479.949 675.811 481.391 676.096 483.676Z" fill="url(#paint38_linear_471_3911)" style="mix-blend-mode:lighten"/>
<path d="M676.096 483.676C676.39 485.962 675.356 488.229 673.791 488.741C672.226 489.244 670.718 487.802 670.433 485.516C670.149 483.231 671.173 480.964 672.738 480.452C674.303 479.949 675.811 481.391 676.096 483.676Z" stroke="white" stroke-width="0.72" stroke-miterlimit="10"/>
</g>
<g style="mix-blend-mode:lighten">
<path d="M701.362 507.738C701.656 510.024 700.622 512.29 699.058 512.803C697.493 513.305 695.985 511.864 695.7 509.578C695.415 507.292 696.44 505.025 698.005 504.513C699.57 504.01 701.078 505.452 701.362 507.738Z" fill="url(#paint39_linear_471_3911)" style="mix-blend-mode:lighten"/>
<path d="M701.362 507.738C701.656 510.024 700.622 512.29 699.058 512.803C697.493 513.305 695.985 511.864 695.7 509.578C695.415 507.292 696.44 505.025 698.005 504.513C699.57 504.01 701.078 505.452 701.362 507.738Z" stroke="white" stroke-width="0.72" stroke-miterlimit="10"/>
</g>
<g style="mix-blend-mode:lighten">
<path d="M721.024 464.821C721.318 467.107 720.284 469.373 718.719 469.886C717.154 470.388 715.646 468.947 715.361 466.661C715.077 464.375 716.101 462.108 717.666 461.596C719.231 461.093 720.739 462.535 721.024 464.821Z" fill="url(#paint40_linear_471_3911)" style="mix-blend-mode:lighten"/>
<path d="M721.024 464.821C721.318 467.107 720.284 469.373 718.719 469.886C717.154 470.388 715.646 468.947 715.361 466.661C715.077 464.375 716.101 462.108 717.666 461.596C719.231 461.093 720.739 462.535 721.024 464.821Z" stroke="white" stroke-width="0.72" stroke-miterlimit="10"/>
</g>
<g style="mix-blend-mode:lighten">
<path d="M717.04 431.112C712.023 434.868 706.275 438.719 699.703 442.551C691.726 447.208 682.536 451.845 671.951 456.284" stroke="white" stroke-width="1.92" stroke-miterlimit="10" stroke-linecap="round"/>
</g>
<g style="mix-blend-mode:lighten">
<path d="M717.04 416.421C712.023 420.177 706.275 424.027 699.703 427.859C691.726 432.516 682.536 437.154 671.951 441.593" stroke="white" stroke-width="1.92" stroke-miterlimit="10" stroke-linecap="round"/>
</g>
<g style="mix-blend-mode:lighten">
<path d="M717.04 401.729C712.023 405.485 706.275 409.336 699.703 413.168C691.726 417.825 682.536 422.463 671.951 426.901" stroke="white" stroke-width="1.92" stroke-miterlimit="10" stroke-linecap="round"/>
</g>
<path d="M695.131 249.455L696.013 252.339C696.079 252.547 696.24 252.708 696.459 252.765L699.475 253.609C700.11 253.79 700.11 254.643 699.475 254.823L696.459 255.668C696.24 255.725 696.07 255.886 696.013 256.094L695.131 258.978C694.951 259.585 694.05 259.585 693.869 258.978L692.987 256.094C692.921 255.886 692.76 255.725 692.541 255.668L689.525 254.823C688.89 254.643 688.89 253.79 689.525 253.609L692.541 252.765C692.76 252.708 692.93 252.547 692.987 252.339L693.869 249.455C694.05 248.848 694.951 248.848 695.131 249.455Z" fill="white"/>
<path d="M213.146 674.41L214 677.34C214.057 677.549 214.228 677.72 214.436 677.777L217.367 678.63C217.984 678.81 217.984 679.683 217.367 679.863L214.436 680.717C214.228 680.774 214.066 680.944 214 681.153L213.146 684.084C212.966 684.7 212.094 684.7 211.913 684.084L211.06 681.153C211.003 680.944 210.832 680.783 210.624 680.717L207.693 679.863C207.076 679.683 207.076 678.81 207.693 678.63L210.624 677.777C210.832 677.72 211.003 677.549 211.06 677.34L211.913 674.41C212.094 673.793 212.966 673.793 213.146 674.41Z" fill="white"/>
<path d="M942.516 361.079L943.369 364.009C943.426 364.218 943.597 364.379 943.806 364.446L946.736 365.299C947.353 365.479 947.353 366.352 946.736 366.532L943.806 367.386C943.597 367.443 943.426 367.613 943.369 367.822L942.516 370.753C942.336 371.369 941.463 371.369 941.283 370.753L940.429 367.822C940.372 367.613 940.202 367.443 939.993 367.386L937.062 366.532C936.446 366.352 936.446 365.479 937.062 365.299L939.993 364.446C940.202 364.389 940.363 364.218 940.429 364.009L941.283 361.079C941.463 360.462 942.336 360.462 942.516 361.079Z" fill="white"/>
<path d="M801.007 885.08L801.822 887.887C801.879 888.086 802.04 888.247 802.24 888.304L805.047 889.12C805.635 889.291 805.635 890.125 805.047 890.296L802.24 891.112C802.04 891.169 801.879 891.33 801.822 891.529L801.007 894.337C800.836 894.925 800.001 894.925 799.83 894.337L799.015 891.529C798.958 891.33 798.797 891.169 798.597 891.112L795.79 890.296C795.202 890.125 795.202 889.291 795.79 889.12L798.597 888.304C798.797 888.247 798.958 888.086 799.015 887.887L799.83 885.08C800.001 884.492 800.836 884.492 801.007 885.08Z" fill="white"/>
<path d="M999.964 693.862L1001.61 699.515C1001.73 699.922 1002.05 700.235 1002.46 700.359L1008.11 702.009C1009.3 702.36 1009.3 704.039 1008.11 704.38L1002.46 706.03C1002.05 706.144 1001.74 706.467 1001.61 706.875L999.964 712.527C999.613 713.713 997.934 713.713 997.593 712.527L995.942 706.875C995.828 706.467 995.506 706.154 995.098 706.03L989.445 704.38C988.26 704.029 988.26 702.35 989.445 702.009L995.098 700.359C995.506 700.245 995.819 699.922 995.942 699.515L997.593 693.862C997.943 692.676 999.622 692.676 999.964 693.862Z" fill="white"/>
<path d="M284.005 351.927L285.95 358.585C286.092 359.059 286.462 359.438 286.936 359.571L293.594 361.515C294.988 361.923 294.988 363.905 293.594 364.313L286.936 366.258C286.462 366.4 286.082 366.77 285.95 367.244L284.005 373.902C283.597 375.296 281.615 375.296 281.207 373.902L279.263 367.244C279.121 366.77 278.751 366.39 278.277 366.258L271.618 364.313C270.224 363.905 270.224 361.923 271.618 361.515L278.277 359.571C278.751 359.429 279.13 359.059 279.263 358.585L281.207 351.927C281.615 350.532 283.597 350.532 284.005 351.927Z" fill="white"/>
</g>
<defs>
<filter id="filter0_f_471_3911" x="-210" y="-199" width="1309" height="1309" filterUnits="userSpaceOnUse" color-interpolation-filters="sRGB">
<feFlood flood-opacity="0" result="BackgroundImageFix"/>
<feBlend mode="normal" in="SourceGraphic" in2="BackgroundImageFix" result="shape"/>
<feGaussianBlur stdDeviation="158.5" result="effect1_foregroundBlur_471_3911"/>
</filter>
<filter id="filter1_f_471_3911" x="-148" y="-80" width="1496" height="1496" filterUnits="userSpaceOnUse" color-interpolation-filters="sRGB">
<feFlood flood-opacity="0" result="BackgroundImageFix"/>
<feBlend mode="normal" in="SourceGraphic" in2="BackgroundImageFix" result="shape"/>
<feGaussianBlur stdDeviation="272.5" result="effect1_foregroundBlur_471_3911"/>
</filter>
<linearGradient id="paint0_linear_471_3911" x1="-4.39077" y1="95.4643" x2="486.054" y2="503.422" gradientUnits="userSpaceOnUse">
<stop offset="0.12" stop-color="#F0BDF5"/>
<stop offset="0.21" stop-color="#EEBBF4" stop-opacity="0.99"/>
<stop offset="0.28" stop-color="#EBB4F2" stop-opacity="0.95"/>
<stop offset="0.34" stop-color="#E6AAEE" stop-opacity="0.89"/>
<stop offset="0.39" stop-color="#DE9BE8" stop-opacity="0.8"/>
<stop offset="0.44" stop-color="#D488E2" stop-opacity="0.68"/>
<stop offset="0.48" stop-color="#C870D9" stop-opacity="0.54"/>
<stop offset="0.53" stop-color="#B954CF" stop-opacity="0.36"/>
<stop offset="0.57" stop-color="#A835C4" stop-opacity="0.17"/>
<stop offset="0.6" stop-color="#9A19BA" stop-opacity="0"/>
</linearGradient>
<linearGradient id="paint1_linear_471_3911" x1="151.08" y1="553.709" x2="159.416" y2="659.813" gradientUnits="userSpaceOnUse">
<stop stop-color="#E964F5"/>
<stop offset="0.99" stop-color="#9A19BA" stop-opacity="0"/>
</linearGradient>
<linearGradient id="paint2_linear_471_3911" x1="918.529" y1="699.259" x2="821.066" y2="784.449" gradientUnits="userSpaceOnUse">
<stop stop-color="#E964F5"/>
<stop offset="0.99" stop-color="#9A19BA" stop-opacity="0"/>
</linearGradient>
<linearGradient id="paint3_linear_471_3911" x1="167.926" y1="765.385" x2="153.298" y2="791.277" gradientUnits="userSpaceOnUse">
<stop stop-color="#C422C6" stop-opacity="0.1"/>
<stop offset="0.27" stop-color="#D55ED7" stop-opacity="0.4"/>
<stop offset="0.53" stop-color="#E493E7" stop-opacity="0.66"/>
<stop offset="0.74" stop-color="#EFB8F2" stop-opacity="0.84"/>
<stop offset="0.91" stop-color="#F6D0F9" stop-opacity="0.96"/>
<stop offset="1" stop-color="#F9D9FC"/>
</linearGradient>
<linearGradient id="paint4_linear_471_3911" x1="163.85" y1="779.698" x2="194.704" y2="786.815" gradientUnits="userSpaceOnUse">
<stop stop-color="#C422C6" stop-opacity="0.1"/>
<stop offset="0.27" stop-color="#D55ED7" stop-opacity="0.4"/>
<stop offset="0.53" stop-color="#E493E7" stop-opacity="0.66"/>
<stop offset="0.74" stop-color="#EFB8F2" stop-opacity="0.84"/>
<stop offset="0.91" stop-color="#F6D0F9" stop-opacity="0.96"/>
<stop offset="1" stop-color="#F9D9FC"/>
</linearGradient>
<linearGradient id="paint5_linear_471_3911" x1="172.09" y1="756.883" x2="168.022" y2="783.703" gradientUnits="userSpaceOnUse">
<stop stop-color="#C422C6" stop-opacity="0.1"/>
<stop offset="0.27" stop-color="#D55ED7" stop-opacity="0.4"/>
<stop offset="0.53" stop-color="#E493E7" stop-opacity="0.66"/>
<stop offset="0.74" stop-color="#EFB8F2" stop-opacity="0.84"/>
<stop offset="0.91" stop-color="#F6D0F9" stop-opacity="0.96"/>
<stop offset="1" stop-color="#F9D9FC"/>
</linearGradient>
<linearGradient id="paint6_linear_471_3911" x1="472.516" y1="198.166" x2="626.742" y2="770.17" gradientUnits="userSpaceOnUse">
<stop stop-color="#0F1755"/>
<stop offset="0.567708" stop-color="#9604A5" stop-opacity="0.33"/>
<stop offset="0.942708" stop-color="#DB32EC" stop-opacity="0.21"/>
</linearGradient>
<linearGradient id="paint7_linear_471_3911" x1="242.299" y1="432.735" x2="36.9856" y2="410.506" gradientUnits="userSpaceOnUse">
<stop offset="0.12" stop-color="#F0D3F5"/>
<stop offset="0.21" stop-color="#EED0F4" stop-opacity="0.99"/>
<stop offset="0.28" stop-color="#EBC9F2" stop-opacity="0.95"/>
<stop offset="0.34" stop-color="#E6BDEE" stop-opacity="0.89"/>
<stop offset="0.39" stop-color="#DEADE8" stop-opacity="0.8"/>
<stop offset="0.44" stop-color="#D497E2" stop-opacity="0.68"/>
<stop offset="0.48" stop-color="#C87CD9" stop-opacity="0.54"/>
<stop offset="0.53" stop-color="#B95CCF" stop-opacity="0.36"/>
<stop offset="0.57" stop-color="#A839C4" stop-opacity="0.17"/>
<stop offset="0.6" stop-color="#9A19BA" stop-opacity="0"/>
</linearGradient>
<linearGradient id="paint8_linear_471_3911" x1="206.456" y1="535.411" x2="189.759" y2="394.904" gradientUnits="userSpaceOnUse">
<stop offset="0.12" stop-color="#F0BDF5"/>
<stop offset="0.21" stop-color="#EEBAF4" stop-opacity="0.98"/>
<stop offset="0.29" stop-color="#EAB2F1" stop-opacity="0.94"/>
<stop offset="0.37" stop-color="#E3A5EC" stop-opacity="0.86"/>
<stop offset="0.45" stop-color="#DA93E6" stop-opacity="0.75"/>
<stop offset="0.53" stop-color="#CD7BDD" stop-opacity="0.6"/>
<stop offset="0.61" stop-color="#BE5FD3" stop-opacity="0.43"/>
<stop offset="0.69" stop-color="#AD3DC7" stop-opacity="0.22"/>
<stop offset="0.77" stop-color="#9A19BA" stop-opacity="0"/>
</linearGradient>
<linearGradient id="paint9_linear_471_3911" x1="174.19" y1="452.943" x2="226.313" y2="398.298" gradientUnits="userSpaceOnUse">
<stop offset="0.27" stop-color="#9500BA" stop-opacity="0"/>
<stop offset="0.62" stop-color="#F0BDF5"/>
</linearGradient>
<linearGradient id="paint10_linear_471_3911" x1="153.169" y1="439.915" x2="237.226" y2="483.179" gradientUnits="userSpaceOnUse">
<stop offset="0.27" stop-color="#9A19BA" stop-opacity="0"/>
<stop offset="0.62" stop-color="#F0BDF5"/>
</linearGradient>
<linearGradient id="paint11_linear_471_3911" x1="275.373" y1="526.773" x2="179.251" y2="435.949" gradientUnits="userSpaceOnUse">
<stop offset="0.32" stop-color="#FFEDFF"/>
<stop offset="0.34" stop-color="#FEEBFE" stop-opacity="0.94"/>
<stop offset="0.46" stop-color="#FCE5FD" stop-opacity="0.61"/>
<stop offset="0.56" stop-color="#FBDFFD" stop-opacity="0.35"/>
<stop offset="0.65" stop-color="#F9DCFC" stop-opacity="0.16"/>
<stop offset="0.71" stop-color="#F9D9FC" stop-opacity="0.04"/>
<stop offset="0.75" stop-color="#F9D9FC" stop-opacity="0"/>
</linearGradient>
<linearGradient id="paint12_linear_471_3911" x1="224.92" y1="339.66" x2="196.122" y2="454.047" gradientUnits="userSpaceOnUse">
<stop offset="0.07" stop-color="#FFB6FF"/>
<stop offset="0.1" stop-color="#FEB8FE" stop-opacity="0.94"/>
<stop offset="0.29" stop-color="#FCC3FD" stop-opacity="0.61"/>
<stop offset="0.45" stop-color="#FBCCFD" stop-opacity="0.35"/>
<stop offset="0.59" stop-color="#F9D3FC" stop-opacity="0.16"/>
<stop offset="0.69" stop-color="#F9D7FC" stop-opacity="0.04"/>
<stop offset="0.75" stop-color="#F9D9FC" stop-opacity="0"/>
</linearGradient>
<linearGradient id="paint13_linear_471_3911" x1="35.8858" y1="409.874" x2="364.497" y2="526.577" gradientUnits="userSpaceOnUse">
<stop offset="0.07" stop-color="#FFB6FF"/>
<stop offset="0.08" stop-color="#FEB8FE" stop-opacity="0.94"/>
<stop offset="0.19" stop-color="#FCC3FD" stop-opacity="0.61"/>
<stop offset="0.28" stop-color="#FBCCFD" stop-opacity="0.35"/>
<stop offset="0.35" stop-color="#F9D3FC" stop-opacity="0.16"/>
<stop offset="0.41" stop-color="#F9D7FC" stop-opacity="0.04"/>
<stop offset="0.44" stop-color="#F9D9FC" stop-opacity="0"/>
</linearGradient>
<linearGradient id="paint14_linear_471_3911" x1="507.18" y1="917.4" x2="473.724" y2="847.567" gradientUnits="userSpaceOnUse">
<stop offset="0.23" stop-color="#4E0778"/>
<stop offset="0.37" stop-color="#500A79"/>
<stop offset="0.49" stop-color="#581380"/>
<stop offset="0.58" stop-color="#65238A"/>
<stop offset="0.68" stop-color="#783B99"/>
<stop offset="0.76" stop-color="#9058AC"/>
<stop offset="0.85" stop-color="#AE7DC3"/>
<stop offset="0.93" stop-color="#D1A7DE"/>
<stop offset="1" stop-color="#F7D6FC"/>
</linearGradient>
<linearGradient id="paint15_linear_471_3911" x1="518.983" y1="930.902" x2="426.583" y2="825.947" gradientUnits="userSpaceOnUse">
<stop offset="0.12" stop-color="#F0BDF5"/>
<stop offset="0.22" stop-color="#EDBAF3"/>
<stop offset="0.3" stop-color="#E6B0ED"/>
<stop offset="0.36" stop-color="#DAA1E3"/>
<stop offset="0.42" stop-color="#C88BD4"/>
<stop offset="0.48" stop-color="#B26EC2"/>
<stop offset="0.53" stop-color="#964BAB"/>
<stop offset="0.58" stop-color="#762291"/>
<stop offset="0.61" stop-color="#5E037D"/>
</linearGradient>
<linearGradient id="paint16_linear_471_3911" x1="514.056" y1="854.296" x2="456.678" y2="908.954" gradientUnits="userSpaceOnUse">
<stop offset="0.23" stop-color="#4E0778"/>
<stop offset="0.4" stop-color="#6E2F91"/>
<stop offset="0.77" stop-color="#C193D1"/>
<stop offset="1" stop-color="#F7D6FC"/>
</linearGradient>
<linearGradient id="paint17_linear_471_3911" x1="454.281" y1="864.262" x2="501.741" y2="882.795" gradientUnits="userSpaceOnUse">
<stop offset="0.23" stop-color="#4E0778"/>
<stop offset="0.4" stop-color="#6E2F91"/>
<stop offset="0.77" stop-color="#C193D1"/>
<stop offset="1" stop-color="#F7D6FC"/>
</linearGradient>
<linearGradient id="paint18_linear_471_3911" x1="556.533" y1="946.597" x2="471.04" y2="868.312" gradientUnits="userSpaceOnUse">
<stop offset="0.07" stop-color="white"/>
<stop offset="0.39" stop-color="#FCECFD" stop-opacity="0.51"/>
<stop offset="0.64" stop-color="#F9DEFC" stop-opacity="0.14"/>
<stop offset="0.75" stop-color="#F9D9FC" stop-opacity="0"/>
</linearGradient>
<linearGradient id="paint19_linear_471_3911" x1="504.738" y1="807.36" x2="485.947" y2="883.703" gradientUnits="userSpaceOnUse">
<stop offset="0.28" stop-color="white"/>
<stop offset="0.3" stop-color="#FEFCFE" stop-opacity="0.94"/>
<stop offset="0.43" stop-color="#FCF0FD" stop-opacity="0.61"/>
<stop offset="0.54" stop-color="#FBE6FD" stop-opacity="0.35"/>
<stop offset="0.64" stop-color="#F9DFFC" stop-opacity="0.16"/>
<stop offset="0.71" stop-color="#F9DAFC" stop-opacity="0.04"/>
<stop offset="0.75" stop-color="#F9D9FC" stop-opacity="0"/>
</linearGradient>
<linearGradient id="paint20_linear_471_3911" x1="379.088" y1="854.625" x2="598.503" y2="931.251" gradientUnits="userSpaceOnUse">
<stop offset="0.07" stop-color="#FFE3FF"/>
<stop offset="0.16" stop-color="#FDE0FE" stop-opacity="0.75"/>
<stop offset="0.25" stop-color="#FCDEFD" stop-opacity="0.53"/>
<stop offset="0.34" stop-color="#FBDCFD" stop-opacity="0.34"/>
<stop offset="0.42" stop-color="#FADAFC" stop-opacity="0.19"/>
<stop offset="0.5" stop-color="#F9D9FC" stop-opacity="0.09"/>
<stop offset="0.57" stop-color="#F9D9FC" stop-opacity="0.02"/>
<stop offset="0.62" stop-color="#F9D9FC" stop-opacity="0"/>
</linearGradient>
<radialGradient id="paint21_radial_471_3911" cx="0" cy="0" r="1" gradientUnits="userSpaceOnUse" gradientTransform="translate(971.484 503.836) rotate(13.03) scale(112.411 112.411)">
<stop offset="0.12" stop-color="#F0BDF5"/>
<stop offset="0.28" stop-color="#C080CE"/>
<stop offset="0.45" stop-color="#964BAB"/>
<stop offset="0.59" stop-color="#772392"/>
<stop offset="0.7" stop-color="#640B82"/>
<stop offset="0.77" stop-color="#5E037D"/>
</radialGradient>
<linearGradient id="paint22_linear_471_3911" x1="941.26" y1="500.668" x2="945.254" y2="477.377" gradientUnits="userSpaceOnUse">
<stop offset="0.7" stop-color="#4E0778"/>
<stop offset="0.76" stop-color="#793C9A"/>
<stop offset="0.82" stop-color="#A572BC"/>
<stop offset="0.87" stop-color="#C99DD8"/>
<stop offset="0.93" stop-color="#E2BCEB"/>
<stop offset="0.97" stop-color="#F1CFF7"/>
<stop offset="1" stop-color="#F7D6FC"/>
</linearGradient>
<linearGradient id="paint23_linear_471_3911" x1="960.866" y1="512.36" x2="929.783" y2="483.457" gradientUnits="userSpaceOnUse">
<stop offset="0.63" stop-color="#4E0778"/>
<stop offset="0.71" stop-color="#733495"/>
<stop offset="0.91" stop-color="#D1A7DE"/>
<stop offset="1" stop-color="#F7D6FC"/>
</linearGradient>
<linearGradient id="paint24_linear_471_3911" x1="944.486" y1="483.253" x2="940.538" y2="500.311" gradientUnits="userSpaceOnUse">
<stop offset="0.29" stop-color="#390557"/>
<stop offset="0.37" stop-color="#3D095A"/>
<stop offset="0.47" stop-color="#4A1866"/>
<stop offset="0.58" stop-color="#5F2F78"/>
<stop offset="0.69" stop-color="#7D5092"/>
<stop offset="0.8" stop-color="#A47BB4"/>
<stop offset="0.92" stop-color="#D3AEDC"/>
<stop offset="1" stop-color="#F7D6FC"/>
</linearGradient>
<linearGradient id="paint25_linear_471_3911" x1="957.63" y1="422.904" x2="953.709" y2="569.709" gradientUnits="userSpaceOnUse">
<stop offset="0.29" stop-color="#4E0778"/>
<stop offset="0.37" stop-color="#520B7B"/>
<stop offset="0.47" stop-color="#5D1A84"/>
<stop offset="0.58" stop-color="#703193"/>
<stop offset="0.69" stop-color="#8B52A8"/>
<stop offset="0.81" stop-color="#AE7DC3"/>
<stop offset="0.92" stop-color="#D8B0E4"/>
<stop offset="1" stop-color="#F7D6FC"/>
</linearGradient>
<linearGradient id="paint26_linear_471_3911" x1="1000.74" y1="494.084" x2="959.487" y2="553.697" gradientUnits="userSpaceOnUse">
<stop offset="0.38" stop-color="#4E0778"/>
<stop offset="0.44" stop-color="#520C7B"/>
<stop offset="0.53" stop-color="#5F1C85"/>
<stop offset="0.63" stop-color="#753797"/>
<stop offset="0.74" stop-color="#945CAE"/>
<stop offset="0.85" stop-color="#BB8CCD"/>
<stop offset="0.97" stop-color="#EAC6F2"/>
<stop offset="1" stop-color="#F7D6FC"/>
</linearGradient>
<linearGradient id="paint27_linear_471_3911" x1="857.675" y1="500.278" x2="970.187" y2="453.448" gradientUnits="userSpaceOnUse">
<stop offset="0.28" stop-color="#4E0778"/>
<stop offset="0.41" stop-color="#500A79"/>
<stop offset="0.52" stop-color="#581380"/>
<stop offset="0.61" stop-color="#65238A"/>
<stop offset="0.7" stop-color="#783B99"/>
<stop offset="0.78" stop-color="#9058AC"/>
<stop offset="0.86" stop-color="#AE7DC3"/>
<stop offset="0.93" stop-color="#D1A7DE"/>
<stop offset="1" stop-color="#F7D6FC"/>
</linearGradient>
<radialGradient id="paint28_radial_471_3911" cx="0" cy="0" r="1" gradientUnits="userSpaceOnUse" gradientTransform="translate(965.19 511.977) rotate(13.03) scale(38.602 38.602)">
<stop offset="0.52" stop-color="#4E0778"/>
<stop offset="0.6" stop-color="#500A79"/>
<stop offset="0.67" stop-color="#581480"/>
<stop offset="0.74" stop-color="#66248A"/>
<stop offset="0.79" stop-color="#793C99"/>
<stop offset="0.85" stop-color="#925AAD"/>
<stop offset="0.9" stop-color="#B07FC5"/>
<stop offset="0.96" stop-color="#D4ABE0"/>
<stop offset="1" stop-color="#F7D6FC"/>
</radialGradient>
<linearGradient id="paint29_linear_471_3911" x1="720.047" y1="428.39" x2="706.275" y2="297.134" gradientUnits="userSpaceOnUse">
<stop stop-color="#BA00BB" stop-opacity="0"/>
<stop offset="0.42" stop-color="#C31EC5" stop-opacity="0.02"/>
<stop offset="0.72" stop-color="#DF80E2" stop-opacity="0.54"/>
<stop offset="1" stop-color="#F9D9FC"/>
</linearGradient>
<linearGradient id="paint30_linear_471_3911" x1="1101.83" y1="466.85" x2="171.557" y2="468.064" gradientUnits="userSpaceOnUse">
<stop stop-color="#C422C6" stop-opacity="0.1"/>
<stop offset="0.04" stop-color="#CC47CD" stop-opacity="0.23"/>
<stop offset="0.11" stop-color="#DB8FDC" stop-opacity="0.48"/>
<stop offset="0.18" stop-color="#E7C4E7" stop-opacity="0.67"/>
<stop offset="0.22" stop-color="#EEE4EE" stop-opacity="0.78"/>
<stop offset="0.25" stop-color="#F1F1F1" stop-opacity="0.82"/>
<stop offset="0.31" stop-color="#E8C9E9" stop-opacity="0.67"/>
<stop offset="0.45" stop-color="#D363D5" stop-opacity="0.27"/>
<stop offset="0.51" stop-color="#CB3BCD" stop-opacity="0.11"/>
<stop offset="0.54" stop-color="#CD43CF" stop-opacity="0.15"/>
<stop offset="0.59" stop-color="#D258D4" stop-opacity="0.26"/>
<stop offset="0.66" stop-color="#DC7BDE" stop-opacity="0.44"/>
<stop offset="0.74" stop-color="#E9ACEB" stop-opacity="0.69"/>
<stop offset="0.83" stop-color="#FAEAFC"/>
</linearGradient>
<linearGradient id="paint31_linear_471_3911" x1="369.831" y1="426.816" x2="534.899" y2="614.088" gradientUnits="userSpaceOnUse">
<stop offset="0.23" stop-color="#F9D9FC"/>
<stop offset="0.31" stop-color="#EEB5F1" stop-opacity="0.82"/>
<stop offset="0.48" stop-color="#D45BD6" stop-opacity="0.38"/>
<stop offset="0.58" stop-color="#C422C6" stop-opacity="0.1"/>
<stop offset="0.61" stop-color="#CB3DCD" stop-opacity="0.23"/>
<stop offset="0.66" stop-color="#D765D9" stop-opacity="0.43"/>
<stop offset="0.7" stop-color="#E187E3" stop-opacity="0.6"/>
<stop offset="0.75" stop-color="#E9A4EC" stop-opacity="0.74"/>
<stop offset="0.8" stop-color="#EFB9F2" stop-opacity="0.85"/>
<stop offset="0.84" stop-color="#F4C9F7" stop-opacity="0.92"/>
<stop offset="0.89" stop-color="#F7D2FA" stop-opacity="0.97"/>
<stop offset="0.94" stop-color="#F8D6FB" stop-opacity="0.98"/>
</linearGradient>
<linearGradient id="paint32_linear_471_3911" x1="454.347" y1="486.256" x2="458.378" y2="592.53" gradientUnits="userSpaceOnUse">
<stop offset="0.12" stop-color="#F0BDF5"/>
<stop offset="0.21" stop-color="#EEBBF4" stop-opacity="0.99"/>
<stop offset="0.28" stop-color="#EBB4F2" stop-opacity="0.95"/>
<stop offset="0.34" stop-color="#E6AAEE" stop-opacity="0.89"/>
<stop offset="0.39" stop-color="#DE9BE8" stop-opacity="0.8"/>
<stop offset="0.44" stop-color="#D488E2" stop-opacity="0.68"/>
<stop offset="0.48" stop-color="#C870D9" stop-opacity="0.54"/>
<stop offset="0.53" stop-color="#B954CF" stop-opacity="0.36"/>
<stop offset="0.57" stop-color="#A835C4" stop-opacity="0.17"/>
<stop offset="0.6" stop-color="#9A19BA" stop-opacity="0"/>
</linearGradient>
<linearGradient id="paint33_linear_471_3911" x1="379.325" y1="651.656" x2="590.526" y2="424.426" gradientUnits="userSpaceOnUse">
<stop offset="0.12" stop-color="#F0BDF5"/>
<stop offset="0.21" stop-color="#EEBBF4" stop-opacity="0.99"/>
<stop offset="0.28" stop-color="#EBB4F2" stop-opacity="0.95"/>
<stop offset="0.34" stop-color="#E6AAEE" stop-opacity="0.89"/>
<stop offset="0.39" stop-color="#DE9BE8" stop-opacity="0.8"/>
<stop offset="0.44" stop-color="#D488E2" stop-opacity="0.68"/>
<stop offset="0.48" stop-color="#C870D9" stop-opacity="0.54"/>
<stop offset="0.53" stop-color="#B954CF" stop-opacity="0.36"/>
<stop offset="0.57" stop-color="#A835C4" stop-opacity="0.17"/>
<stop offset="0.6" stop-color="#9A19BA" stop-opacity="0"/>
</linearGradient>
<linearGradient id="paint34_linear_471_3911" x1="401.661" y1="476.258" x2="425.135" y2="513.068" gradientUnits="userSpaceOnUse">
<stop offset="0.12" stop-color="#F0BDF5"/>
<stop offset="0.21" stop-color="#EEBBF4" stop-opacity="0.99"/>
<stop offset="0.28" stop-color="#EBB4F2" stop-opacity="0.95"/>
<stop offset="0.34" stop-color="#E6AAEE" stop-opacity="0.89"/>
<stop offset="0.39" stop-color="#DE9BE8" stop-opacity="0.8"/>
<stop offset="0.44" stop-color="#D488E2" stop-opacity="0.68"/>
<stop offset="0.48" stop-color="#C870D9" stop-opacity="0.54"/>
<stop offset="0.53" stop-color="#B954CF" stop-opacity="0.36"/>
<stop offset="0.57" stop-color="#A835C4" stop-opacity="0.17"/>
<stop offset="0.6" stop-color="#9A19BA" stop-opacity="0"/>
</linearGradient>
<linearGradient id="paint35_linear_471_3911" x1="759.523" y1="420.073" x2="803.522" y2="447.574" gradientUnits="userSpaceOnUse">
<stop offset="0.23" stop-color="#F9D9FC"/>
<stop offset="0.31" stop-color="#EEB5F1" stop-opacity="0.82"/>
<stop offset="0.48" stop-color="#D45BD6" stop-opacity="0.38"/>
<stop offset="0.58" stop-color="#C422C6" stop-opacity="0.1"/>
<stop offset="0.61" stop-color="#CB3DCD" stop-opacity="0.23"/>
<stop offset="0.66" stop-color="#D765D9" stop-opacity="0.43"/>
<stop offset="0.7" stop-color="#E187E3" stop-opacity="0.6"/>
<stop offset="0.75" stop-color="#E9A4EC" stop-opacity="0.74"/>
<stop offset="0.8" stop-color="#EFB9F2" stop-opacity="0.85"/>
<stop offset="0.84" stop-color="#F4C9F7" stop-opacity="0.92"/>
<stop offset="0.89" stop-color="#F7D2FA" stop-opacity="0.97"/>
<stop offset="0.94" stop-color="#F8D6FB" stop-opacity="0.98"/>
</linearGradient>
<linearGradient id="paint36_linear_471_3911" x1="729.927" y1="502.276" x2="783.637" y2="535.84" gradientUnits="userSpaceOnUse">
<stop offset="0.23" stop-color="#F9D9FC"/>
<stop offset="0.31" stop-color="#EEB5F1" stop-opacity="0.82"/>
<stop offset="0.48" stop-color="#D45BD6" stop-opacity="0.38"/>
<stop offset="0.58" stop-color="#C422C6" stop-opacity="0.1"/>
<stop offset="0.61" stop-color="#CB3DCD" stop-opacity="0.23"/>
<stop offset="0.66" stop-color="#D765D9" stop-opacity="0.43"/>
<stop offset="0.7" stop-color="#E187E3" stop-opacity="0.6"/>
<stop offset="0.75" stop-color="#E9A4EC" stop-opacity="0.74"/>
<stop offset="0.8" stop-color="#EFB9F2" stop-opacity="0.85"/>
<stop offset="0.84" stop-color="#F4C9F7" stop-opacity="0.92"/>
<stop offset="0.89" stop-color="#F7D2FA" stop-opacity="0.97"/>
<stop offset="0.94" stop-color="#F8D6FB" stop-opacity="0.98"/>
</linearGradient>
<linearGradient id="paint37_linear_471_3911" x1="840.736" y1="478.659" x2="884.724" y2="506.161" gradientUnits="userSpaceOnUse">
<stop offset="0.23" stop-color="#F9D9FC"/>
<stop offset="0.31" stop-color="#EEB5F1" stop-opacity="0.82"/>
<stop offset="0.48" stop-color="#D45BD6" stop-opacity="0.38"/>
<stop offset="0.58" stop-color="#C422C6" stop-opacity="0.1"/>
<stop offset="0.61" stop-color="#CB3DCD" stop-opacity="0.23"/>
<stop offset="0.66" stop-color="#D765D9" stop-opacity="0.43"/>
<stop offset="0.7" stop-color="#E187E3" stop-opacity="0.6"/>
<stop offset="0.75" stop-color="#E9A4EC" stop-opacity="0.74"/>
<stop offset="0.8" stop-color="#EFB9F2" stop-opacity="0.85"/>
<stop offset="0.84" stop-color="#F4C9F7" stop-opacity="0.92"/>
<stop offset="0.89" stop-color="#F7D2FA" stop-opacity="0.97"/>
<stop offset="0.94" stop-color="#F8D6FB" stop-opacity="0.98"/>
</linearGradient>
<linearGradient id="paint38_linear_471_3911" x1="860.548" y1="417.877" x2="904.536" y2="445.371" gradientUnits="userSpaceOnUse">
<stop offset="0.23" stop-color="#F9D9FC"/>
<stop offset="0.31" stop-color="#EEB5F1" stop-opacity="0.82"/>
<stop offset="0.48" stop-color="#D45BD6" stop-opacity="0.38"/>
<stop offset="0.58" stop-color="#C422C6" stop-opacity="0.1"/>
<stop offset="0.61" stop-color="#CB3DCD" stop-opacity="0.23"/>
<stop offset="0.66" stop-color="#D765D9" stop-opacity="0.43"/>
<stop offset="0.7" stop-color="#E187E3" stop-opacity="0.6"/>
<stop offset="0.75" stop-color="#E9A4EC" stop-opacity="0.74"/>
<stop offset="0.8" stop-color="#EFB9F2" stop-opacity="0.85"/>
<stop offset="0.84" stop-color="#F4C9F7" stop-opacity="0.92"/>
<stop offset="0.89" stop-color="#F7D2FA" stop-opacity="0.97"/>
<stop offset="0.94" stop-color="#F8D6FB" stop-opacity="0.98"/>
</linearGradient>
<linearGradient id="paint39_linear_471_3911" x1="891.268" y1="440.157" x2="935.266" y2="467.658" gradientUnits="userSpaceOnUse">
<stop offset="0.23" stop-color="#F9D9FC"/>
<stop offset="0.31" stop-color="#EEB5F1" stop-opacity="0.82"/>
<stop offset="0.48" stop-color="#D45BD6" stop-opacity="0.38"/>
<stop offset="0.58" stop-color="#C422C6" stop-opacity="0.1"/>
<stop offset="0.61" stop-color="#CB3DCD" stop-opacity="0.23"/>
<stop offset="0.66" stop-color="#D765D9" stop-opacity="0.43"/>
<stop offset="0.7" stop-color="#E187E3" stop-opacity="0.6"/>
<stop offset="0.75" stop-color="#E9A4EC" stop-opacity="0.74"/>
<stop offset="0.8" stop-color="#EFB9F2" stop-opacity="0.85"/>
<stop offset="0.84" stop-color="#F4C9F7" stop-opacity="0.92"/>
<stop offset="0.89" stop-color="#F7D2FA" stop-opacity="0.97"/>
<stop offset="0.94" stop-color="#F8D6FB" stop-opacity="0.98"/>
</linearGradient>
<linearGradient id="paint40_linear_471_3911" x1="904.697" y1="399.276" x2="948.685" y2="426.769" gradientUnits="userSpaceOnUse">
<stop offset="0.23" stop-color="#F9D9FC"/>
<stop offset="0.31" stop-color="#EEB5F1" stop-opacity="0.82"/>
<stop offset="0.48" stop-color="#D45BD6" stop-opacity="0.38"/>
<stop offset="0.58" stop-color="#C422C6" stop-opacity="0.1"/>
<stop offset="0.61" stop-color="#CB3DCD" stop-opacity="0.23"/>
<stop offset="0.66" stop-color="#D765D9" stop-opacity="0.43"/>
<stop offset="0.7" stop-color="#E187E3" stop-opacity="0.6"/>
<stop offset="0.75" stop-color="#E9A4EC" stop-opacity="0.74"/>
<stop offset="0.8" stop-color="#EFB9F2" stop-opacity="0.85"/>
<stop offset="0.84" stop-color="#F4C9F7" stop-opacity="0.92"/>
<stop offset="0.89" stop-color="#F7D2FA" stop-opacity="0.97"/>
<stop offset="0.94" stop-color="#F8D6FB" stop-opacity="0.98"/>
</linearGradient>
<clipPath id="clip0_471_3911">
<rect width="959.46" height="749.94" fill="white" transform="translate(129 212)"/>
</clipPath>
</defs>
</svg>
