<svg width="21" height="20" viewBox="0 0 21 20" fill="none" xmlns="http://www.w3.org/2000/svg">
<path d="M12.5 10.8333C12.0392 10.8333 11.6667 11.2067 11.6667 11.6666V15C11.6667 15.4591 11.2933 15.8333 10.8333 15.8333H8.33328V3.33328C8.33328 2.62161 7.87994 1.98578 7.19833 1.74911L6.9516 1.66656H10.8333C11.2933 1.66656 11.6667 2.04071 11.6667 2.5V5C11.6667 5.4599 12.0392 5.83328 12.5 5.83328C12.9608 5.83328 13.3333 5.4599 13.3333 5V2.5C13.3333 1.12167 12.2116 0 10.8333 0H1.875C1.84326 0 1.81671 0.0141907 1.78589 0.0183105C1.74576 0.0149536 1.70746 0 1.66672 0C0.747528 0 0 0.747375 0 1.66656V16.6666C0 17.3782 0.453339 18.0141 1.13495 18.2507L6.15005 19.9225C6.32004 19.975 6.48911 20 6.66672 20C7.58591 20 8.33328 19.2525 8.33328 18.3333V17.5H10.8333C12.2116 17.5 13.3333 16.3783 13.3333 15V11.6666C13.3333 11.2067 12.9608 10.8333 12.5 10.8333Z" fill="#616161"/>
<path d="M19.7575 7.74271L16.4241 4.40943C16.1859 4.17109 15.8275 4.09937 15.5159 4.22846C15.2051 4.3577 15.0017 4.66181 15.0017 4.99857V7.49857H11.6684C11.2083 7.49857 10.835 7.8718 10.835 8.33186C10.835 8.79191 11.2083 9.16514 11.6684 9.16514H15.0017V11.6651C15.0017 12.0019 15.2051 12.306 15.5159 12.4352C15.8275 12.5643 16.1859 12.4926 16.4241 12.2544L19.7575 8.921C20.0833 8.59522 20.0833 8.06849 19.7575 7.74271Z" fill="#616161"/>
</svg>
