<?xml version="1.0"?>
<svg xmlns="http://www.w3.org/2000/svg" xmlns:xlink="http://www.w3.org/1999/xlink" xmlns:svgjs="http://svgjs.com/svgjs" version="1.1" width="512" height="512" x="0" y="0" viewBox="0 0 436.67 436.67" style="enable-background:new 0 0 512 512" xml:space="preserve" class=""><g transform="matrix(0.8700000000000001,0,0,0.8700000000000001,28.383484606742797,28.38348342895503)"><g xmlns="http://www.w3.org/2000/svg"><path d="m431.867 98.687c-14.172-45.732-56.487-76.893-104.364-76.854h-218.336c-47.877-.038-90.192 31.123-104.364 76.854-3.151 10.484-4.769 21.368-4.803 32.314v174.668c.022 60.283 48.885 109.146 109.167 109.167h218.335c60.283-.022 109.146-48.885 109.167-109.167v-174.668c-.033-10.946-1.651-21.83-4.802-32.314zm-322.7-33.186h218.335c32.09.092 59.417 23.356 64.627 55.02l-173.795 94.757-173.794-94.757c5.211-31.664 32.537-54.929 64.627-55.02zm283.836 240.168c-.106 36.131-29.369 65.395-65.5 65.5h-218.336c-36.131-.106-65.395-29.369-65.5-65.5v-135.804l164.188 89.517c6.548 3.502 14.412 3.502 20.96 0l164.188-89.517z" fill="#ffffff" data-original="#000000" class=""/></g></g></svg>
