<?xml version="1.0"?>
<svg xmlns="http://www.w3.org/2000/svg" xmlns:xlink="http://www.w3.org/1999/xlink" xmlns:svgjs="http://svgjs.com/svgjs" version="1.1" width="512" height="512" x="0" y="0" viewBox="0 0 381.952 381.952" style="enable-background:new 0 0 512 512" xml:space="preserve"><g transform="matrix(0.8500000000000001,0,0,0.8499999999999999,28.64640197753903,28.646400260925304)">
<g xmlns="http://www.w3.org/2000/svg">
	<g>
		<path d="M202.24,239.104c-3.584,2.048-7.68,3.072-11.264,3.072s-7.68-1.024-11.264-3.072L0,129.536v145.92    c0,31.232,25.088,56.32,56.32,56.32h269.312c31.232,0,56.32-25.088,56.32-56.32v-145.92L202.24,239.104z" fill="#64748b" data-original="#000000"/>
	</g>
</g>
<g xmlns="http://www.w3.org/2000/svg">
	<g>
		<path d="M325.632,50.176H56.32c-26.624,0-49.152,18.944-54.784,44.032l189.44,115.712l189.44-115.712    C374.784,69.12,352.256,50.176,325.632,50.176z" fill="#64748b" data-original="#000000"/>
	</g>
</g>
<g xmlns="http://www.w3.org/2000/svg">
</g>
<g xmlns="http://www.w3.org/2000/svg">
</g>
<g xmlns="http://www.w3.org/2000/svg">
</g>
<g xmlns="http://www.w3.org/2000/svg">
</g>
<g xmlns="http://www.w3.org/2000/svg">
</g>
<g xmlns="http://www.w3.org/2000/svg">
</g>
<g xmlns="http://www.w3.org/2000/svg">
</g>
<g xmlns="http://www.w3.org/2000/svg">
</g>
<g xmlns="http://www.w3.org/2000/svg">
</g>
<g xmlns="http://www.w3.org/2000/svg">
</g>
<g xmlns="http://www.w3.org/2000/svg">
</g>
<g xmlns="http://www.w3.org/2000/svg">
</g>
<g xmlns="http://www.w3.org/2000/svg">
</g>
<g xmlns="http://www.w3.org/2000/svg">
</g>
<g xmlns="http://www.w3.org/2000/svg">
</g>
</g></svg>
