<svg xmlns="http://www.w3.org/2000/svg" xmlns:xlink="http://www.w3.org/1999/xlink" xmlns:svgjs="http://svgjs.com/svgjs" version="1.1" width="512" height="512" x="0" y="0" viewBox="0 0 512 512" style="enable-background:new 0 0 512 512" xml:space="preserve"><g transform="matrix(0.89,0,0,0.89,28.160107421875068,28.160105743408195)">
                                <g xmlns="http://www.w3.org/2000/svg">
                                    <g>
                                        <g>
                                            <path d="M503.927,320.323l-20.438-5.115l10.833-18.063c2.521-4.198,1.854-9.573-1.604-13.031l-23.385-23.385v-26.063     c0-12.805-5.784-24.174-14.741-32c8.957-7.826,14.741-19.195,14.741-32V85.333c0-23.531-19.135-42.667-42.667-42.667h-384     C19.135,42.667,0,61.802,0,85.333v85.333c0,12.805,5.784,24.174,14.741,32C5.784,210.492,0,221.862,0,234.667V320     c0,23.531,19.135,42.667,42.667,42.667h234.667v10.667c0,4.896,3.333,9.156,8.073,10.344l20.438,5.115l-10.833,18.063     c-2.521,4.198-1.854,9.573,1.604,13.031l30.167,30.167c3.438,3.458,8.823,4.094,13.031,1.604l18.063-10.833l5.115,20.438     c1.188,4.74,5.448,8.073,10.344,8.073H416c4.896,0,9.156-3.333,10.344-8.073l5.115-20.438l18.063,10.833     c4.208,2.5,9.583,1.865,13.031-1.604l30.167-30.167c3.458-3.458,4.125-8.833,1.604-13.031l-10.833-18.063l20.438-5.115     c4.74-1.188,8.073-5.448,8.073-10.344v-42.667C512,325.771,508.667,321.51,503.927,320.323z M21.333,85.333     C21.333,73.573,30.906,64,42.667,64h384C438.427,64,448,73.573,448,85.333v85.333c0,11.76-9.573,21.333-21.333,21.333h-384     c-11.76,0-21.333-9.573-21.333-21.333V85.333z M277.333,330.667v10.667H42.667c-11.76,0-21.333-9.573-21.333-21.333v-85.333     c0-11.76,9.573-21.333,21.333-21.333h384c11.76,0,21.333,9.573,21.333,21.333v18.59l-16.542,9.921l-5.115-20.438     c-1.188-4.74-5.448-8.073-10.344-8.073h-42.667c-4.896,0-9.156,3.333-10.344,8.073l-5.115,20.438l-18.063-10.833     c-4.198-2.5-9.573-1.865-13.031,1.604l-30.167,30.167c-3.458,3.458-4.125,8.833-1.604,13.031l10.833,18.063l-20.438,5.115     C280.667,321.51,277.333,325.771,277.333,330.667z M490.667,365.01l-18.323,4.583c-3.479,0.865-6.292,3.427-7.479,6.823     c-0.948,2.729-1.99,5.396-3.25,7.979c-1.573,3.25-1.406,7.063,0.448,10.156l9.688,16.135l-18.396,18.396l-16.135-9.688     c-3.104-1.875-6.917-2.052-10.156-0.448c-2.583,1.26-5.25,2.302-7.979,3.25c-3.396,1.188-5.958,4-6.823,7.479L407.677,448     h-26.021l-4.583-18.323c-0.865-3.479-3.427-6.292-6.823-7.479c-2.729-0.948-5.396-1.99-7.979-3.25     c-3.26-1.583-7.052-1.406-10.156,0.448l-16.135,9.688l-18.396-18.396l9.688-16.135c1.854-3.094,2.021-6.906,0.448-10.156     c-1.26-2.583-2.302-5.25-3.25-7.979c-1.188-3.396-4-5.958-7.479-6.823l-18.323-4.583V338.99l18.323-4.583     c3.479-0.865,6.292-3.427,7.479-6.823c0.948-2.729,1.99-5.396,3.25-7.979c1.573-3.25,1.406-7.063-0.448-10.156l-9.688-16.135     l18.396-18.396l16.135,9.688c3.083,1.854,6.885,2.01,10.156,0.448c2.583-1.26,5.25-2.302,7.979-3.25     c3.396-1.188,5.958-4,6.823-7.479L381.656,256h26.021l4.583,18.323c0.865,3.479,3.427,6.292,6.823,7.479     c2.729,0.948,5.396,1.99,7.979,3.25c3.25,1.573,7.073,1.417,10.156-0.448l16.135-9.688l18.396,18.396l-9.688,16.135     c-1.854,3.094-2.021,6.906-0.448,10.156c1.26,2.583,2.302,5.25,3.25,7.979c1.188,3.396,4,5.958,7.479,6.823l18.323,4.583V365.01z " fill="#c2c4c9" data-original="#000000"/>
                                            <path d="M394.667,298.667c-29.406,0-53.333,23.927-53.333,53.333s23.927,53.333,53.333,53.333S448,381.406,448,352     S424.073,298.667,394.667,298.667z M394.667,384c-17.646,0-32-14.354-32-32c0-17.646,14.354-32,32-32s32,14.354,32,32     C426.667,369.646,412.313,384,394.667,384z" fill="#c2c4c9" data-original="#000000"/>
                                            <path d="M74.667,170.667c5.896,0,10.667-4.771,10.667-10.667V96c0-5.896-4.771-10.667-10.667-10.667     C68.771,85.333,64,90.104,64,96v64C64,165.896,68.771,170.667,74.667,170.667z" fill="#c2c4c9" data-original="#000000"/>
                                            <path d="M117.333,170.667c5.896,0,10.667-4.771,10.667-10.667V96c0-5.896-4.771-10.667-10.667-10.667     c-5.896,0-10.667,4.771-10.667,10.667v64C106.667,165.896,111.438,170.667,117.333,170.667z" fill="#c2c4c9" data-original="#000000"/>
                                            <path d="M160,170.667c5.896,0,10.667-4.771,10.667-10.667V96c0-5.896-4.771-10.667-10.667-10.667S149.333,90.104,149.333,96v64     C149.333,165.896,154.104,170.667,160,170.667z" fill="#c2c4c9" data-original="#000000"/>
                                            <circle cx="384" cy="128" r="21.333" fill="#c2c4c9" data-original="#000000"/>
                                            <circle cx="320" cy="128" r="21.333" fill="#c2c4c9" data-original="#000000"/>
                                            <path d="M74.667,234.667c-5.896,0-10.667,4.771-10.667,10.667v64C64,315.229,68.771,320,74.667,320     c5.896,0,10.667-4.771,10.667-10.667v-64C85.333,239.438,80.563,234.667,74.667,234.667z" fill="#c2c4c9" data-original="#000000"/>
                                            <path d="M117.333,234.667c-5.896,0-10.667,4.771-10.667,10.667v64c0,5.896,4.771,10.667,10.667,10.667     c5.896,0,10.667-4.771,10.667-10.667v-64C128,239.438,123.229,234.667,117.333,234.667z" fill="#c2c4c9" data-original="#000000"/>
                                            <path d="M160,234.667c-5.896,0-10.667,4.771-10.667,10.667v64c0,5.896,4.771,10.667,10.667,10.667s10.667-4.771,10.667-10.667     v-64C170.667,239.438,165.896,234.667,160,234.667z" fill="#c2c4c9" data-original="#000000"/>
                                        </g>
                                    </g>
                                </g>
                                <g xmlns="http://www.w3.org/2000/svg">
                                </g>
                                <g xmlns="http://www.w3.org/2000/svg">
                                </g>
                                <g xmlns="http://www.w3.org/2000/svg">
                                </g>
                                <g xmlns="http://www.w3.org/2000/svg">
                                </g>
                                <g xmlns="http://www.w3.org/2000/svg">
                                </g>
                                <g xmlns="http://www.w3.org/2000/svg">
                                </g>
                                <g xmlns="http://www.w3.org/2000/svg">
                                </g>
                                <g xmlns="http://www.w3.org/2000/svg">
                                </g>
                                <g xmlns="http://www.w3.org/2000/svg">
                                </g>
                                <g xmlns="http://www.w3.org/2000/svg">
                                </g>
                                <g xmlns="http://www.w3.org/2000/svg">
                                </g>
                                <g xmlns="http://www.w3.org/2000/svg">
                                </g>
                                <g xmlns="http://www.w3.org/2000/svg">
                                </g>
                                <g xmlns="http://www.w3.org/2000/svg">
                                </g>
                                <g xmlns="http://www.w3.org/2000/svg">
                                </g>
                                </g>
                            </svg>