<?xml version="1.0"?>
<svg xmlns="http://www.w3.org/2000/svg" xmlns:xlink="http://www.w3.org/1999/xlink" xmlns:svgjs="http://svgjs.com/svgjs" version="1.1" width="512" height="512" x="0" y="0" viewBox="0 0 24 24" style="enable-background:new 0 0 512 512" xml:space="preserve" class=""><g><path xmlns="http://www.w3.org/2000/svg" clip-rule="evenodd" d="m17.7772 18h-11.55439c-1.82838 0-2.87205-1.8391-1.77502-3.1279.48565-.5705.78495-1.2472.86549-1.9568l.44718-3.94011c.24114-2.12456 1.8272-3.868 3.96959-4.60153v-.10371c0-1.25366 1.01625-2.26995 2.26995-2.26995s2.2699 1.01629 2.2699 2.26995v.10371c2.1424.73353 3.7285 2.47697 3.9696 4.60153l.4472 3.94011c.0806.7096.3799 1.3863.8655 1.9568 1.097 1.2888.0534 3.1279-1.775 3.1279zm-2.8051 2.0715c-.4574 1.1277-1.6156 1.9285-2.9721 1.9285s-2.51474-.8008-2.97211-1.9285c-.01906-.047-.02789-.0975-.02789-.1482 0-.2338.18951-.4233.42329-.4233h5.15341c.2338 0 .4233.1895.4233.4233 0 .0507-.0088.1012-.0279.1482z" fill="#64748b" fill-rule="evenodd" data-original="#000000"/></g></svg>
