<svg width="24" height="24" viewBox="0 0 24 24" fill="none" xmlns="http://www.w3.org/2000/svg">
<path d="M12 3C9.25357 3 6.7631 4.11381 4.95405 5.91238C4.94619 5.91929 4.93619 5.92167 4.92881 5.92905C4.92143 5.93643 4.91905 5.94643 4.91214 5.95429C3.11381 7.7631 2 10.2536 2 13C2 15.4157 2.87262 17.7474 4.4581 19.5667C4.65095 19.7888 4.98524 19.8126 5.20786 19.6238L7.29762 17.8533C7.5269 17.6602 7.5519 17.3148 7.35333 17.0902C6.35714 15.9602 5.80905 14.5071 5.80905 12.9998C5.80905 9.58595 8.58595 6.80905 11.9998 6.80905C13.4207 6.80905 14.8095 7.30286 15.9088 8.19857C16.4557 8.645 17.135 7.81619 16.5855 7.36857C15.4343 6.42976 14.0129 5.87095 12.5355 5.76095V4.09833C17.2093 4.37786 20.9286 8.25762 20.9286 13C20.9286 14.9769 20.2736 16.8924 19.0738 18.4486L17.7981 17.3729C18.746 16.1174 19.2621 14.5848 19.2621 13C19.2621 12.2955 19.161 11.5979 18.9614 10.9262C18.7571 10.2421 17.7345 10.5586 17.9345 11.2317C18.104 11.8036 18.1905 12.3986 18.1905 13C18.1905 14.5067 17.6429 15.959 16.6481 17.0883C16.4507 17.3114 16.4729 17.6569 16.7045 17.8521L18.7979 19.6176C19.0212 19.8067 19.356 19.7802 19.5469 19.5598C21.1288 17.7419 22 15.4121 22 13C22 7.48595 17.514 3 12 3ZM7.26429 7.50619L6.08643 6.32857C7.53762 5.04071 9.40643 4.22143 11.4643 4.09833V5.76476C9.865 5.88262 8.41 6.51714 7.26429 7.50619ZM6.20476 17.3757L4.93095 18.4548C3.83738 17.0383 3.20095 15.3233 3.09357 13.5357H4.75976C4.86262 14.9288 5.36286 16.2614 6.20476 17.3757ZM4.765 12.4643H3.09857C3.22167 10.4062 4.04095 8.53738 5.32881 7.08619L6.50667 8.26357C5.51738 9.40952 4.88262 10.8648 4.765 12.4643Z" fill="#9598A1"/>
<path d="M13.2123 15.7267C13.7166 15.2217 17.8895 9.75 18.3638 9.12786C18.7304 8.64643 18.1354 8.02405 17.6404 8.35786C16.5647 9.07429 11.1721 12.6757 10.6664 13.1814C9.96472 13.8831 9.96472 15.025 10.6664 15.7267C11.3666 16.4269 12.509 16.4298 13.2123 15.7267ZM11.4238 13.9388C11.6581 13.7079 13.5638 12.3952 15.5309 11.0643C14.0828 12.9462 12.6885 14.7348 12.4547 14.9691C11.7731 15.651 10.7419 14.6207 11.4238 13.9388Z" fill="#9598A1"/>
<path d="M10.1565 18.625H13.8437C14.5527 18.625 14.5527 17.5536 13.8437 17.5536H10.1565C9.44749 17.5536 9.44749 18.625 10.1565 18.625Z" fill="#9598A1"/>
<path d="M16.5091 19.5833H7.49126C6.78221 19.5833 6.78221 20.6548 7.49126 20.6548H16.5091C17.2179 20.6548 17.2179 19.5833 16.5091 19.5833Z" fill="#9598A1"/>
</svg>
