<svg width="48" height="48" viewBox="0 0 48 48" fill="none" xmlns="http://www.w3.org/2000/svg">
<rect x="0.5" y="0.5" width="47" height="47" rx="23.5" fill="white"/>
<path d="M32.3126 15.0265C32.3041 15.0292 32.2951 15.0255 32.2867 15.0286L15.4117 21.3568C15.2268 21.4263 15.096 21.5936 15.0733 21.7904C15.0506 21.9871 15.1398 22.1797 15.3045 22.2894L19.0041 24.7555L20.3576 30.4107C20.3611 30.4256 20.3703 30.4374 20.375 30.4517C20.4967 30.8227 20.9639 30.9405 21.2433 30.661L23.8908 28.0135L27.9608 30.7269C28.2557 30.9247 28.6622 30.777 28.7606 30.4329L32.9793 15.6672C33.0926 15.2698 32.7196 14.8959 32.3126 15.0265ZM21.6404 25.7532C21.5531 25.8417 21.5268 25.9133 21.4962 26.0249C21.4958 26.0269 21.4949 26.0289 21.4945 26.0309L20.906 28.1705L20.0676 24.6671L28.2353 19.0666L21.6404 25.7532Z" fill="#1C7BF8"/>
<path d="M18.5369 29.4582C18.3309 29.2522 17.9972 29.2522 17.7912 29.4582L15.1545 32.0949C14.9485 32.3009 14.9485 32.6347 15.1545 32.8406C15.3605 33.0466 15.6942 33.0466 15.9002 32.8406L18.5369 30.2039C18.7429 29.9979 18.7429 29.6642 18.5369 29.4582Z" fill="#1C7BF8"/>
<path d="M18.5369 26.2941C18.3309 26.0882 17.9972 26.0881 17.7912 26.2941L15.1545 28.9309C14.9485 29.1369 14.9485 29.4706 15.1545 29.6766C15.3605 29.8826 15.6942 29.8826 15.9002 29.6766L18.5369 27.0398C18.7429 26.8339 18.7429 26.5001 18.5369 26.2941Z" fill="#1C7BF8"/>
<rect x="0.5" y="0.5" width="47" height="47" rx="23.5" stroke="#1C7BF8"/>
</svg>
