<svg width="48" height="48" viewBox="0 0 48 48" fill="none" xmlns="http://www.w3.org/2000/svg">
<rect x="0.5" y="0.5" width="47" height="47" rx="23.5" fill="white"/>
<path d="M22.4999 15H15.7499C15.3377 15 15 15.3377 15 15.7499V32.2501C15 32.6623 15.3377 33 15.7499 33H22.4999C22.9124 33 23.2501 32.6623 23.2501 32.2501V15.7499C23.2501 15.3377 22.9124 15 22.4999 15Z" fill="#1C7BF8"/>
<path d="M32.2501 15H25.5001C25.0877 15 24.75 15.3377 24.75 15.7499V22.4999C24.75 22.9124 25.0877 23.2501 25.5001 23.2501H32.2501C32.6624 23.2501 33.0001 22.9124 33.0001 22.4999V15.7499C33.0001 15.3377 32.6624 15 32.2501 15Z" fill="#1C7BF8"/>
<path d="M32.2501 24.75H25.5001C25.0877 24.75 24.75 25.0877 24.75 25.5001V32.2501C24.75 32.6624 25.0877 33.0001 25.5001 33.0001H32.2501C32.6624 33.0001 33.0001 32.6624 33.0001 32.2501V25.5001C33.0001 25.0877 32.6624 24.75 32.2501 24.75Z" fill="#1C7BF8"/>
<rect x="0.5" y="0.5" width="47" height="47" rx="23.5" stroke="#1C7BF8"/>
</svg>
