<svg width="48" height="48" viewBox="0 0 48 48" fill="none" xmlns="http://www.w3.org/2000/svg">
<rect x="0.5" y="0.5" width="47" height="47" rx="23.5" fill="white"/>
<path d="M19.3944 31.1917C19.9941 31.7913 20.9674 31.7913 21.567 31.1917L29.0047 23.7541C29.2182 23.5405 29.3825 23.2859 29.4893 23.0148C30.2367 23.2243 30.9637 23.3352 31.6043 23.3311C33.1896 23.3229 33.7153 22.6288 33.8878 22.214C34.0603 21.8033 34.1835 20.9408 33.0705 19.8073C33.0582 19.795 33.0459 19.7827 33.0336 19.7704C32.3436 19.0804 31.3415 18.4438 30.2039 17.9715C29.9944 17.8853 29.785 17.8073 29.5796 17.7333V17.721C29.5673 16.8093 28.8322 16.0741 27.9204 16.0618L23.4644 16.0002C22.873 15.992 22.3063 16.222 21.8915 16.6409L14.4497 24.0785C13.8501 24.6781 13.8501 25.6515 14.4497 26.2511L19.3944 31.1917ZM25.1277 18.6615C25.6247 18.1646 26.4296 18.1646 26.9266 18.6615C27.2223 18.9572 27.3414 19.3638 27.2839 19.7457C27.7726 20.0907 28.3558 20.4111 28.98 20.6698C29.2018 20.7601 29.4154 20.8423 29.6207 20.9121L29.5961 19.1215C29.633 19.1379 29.6659 19.1502 29.7028 19.1667C30.6762 19.5732 31.551 20.1236 32.1136 20.6862C32.1218 20.6944 32.13 20.7026 32.1382 20.7109C32.6721 21.2571 32.7296 21.6062 32.6845 21.7129C32.5448 22.0456 31.0458 22.3413 28.7706 21.3926C28.1052 21.1133 27.481 20.7684 26.9758 20.3946C26.9594 20.4152 26.9389 20.4357 26.9224 20.4562C26.4255 20.9532 25.6206 20.9532 25.1236 20.4562C24.6308 19.9634 24.6308 19.1584 25.1277 18.6615Z" fill="#1C7BF8"/>
<rect x="0.5" y="0.5" width="47" height="47" rx="23.5" stroke="#1C7BF8"/>
</svg>
