<svg width="48" height="48" viewBox="0 0 48 48" fill="none" xmlns="http://www.w3.org/2000/svg">
<rect width="48" height="48" rx="24" fill="#F3F3F3"/>
<path d="M19.9188 33C28.221 33 32.7613 26.4603 32.7613 20.7892C32.7613 20.6035 32.7573 20.4186 32.7485 20.2345C33.6319 19.6267 34.3943 18.8742 35 18.0122C34.1912 18.3541 33.3209 18.5842 32.4079 18.6879C33.3399 18.1566 34.0553 17.3161 34.3928 16.3142C33.5068 16.814 32.5374 17.1663 31.5266 17.3559C30.703 16.5217 29.5304 16 28.2319 16C25.7393 16 23.718 17.9219 23.718 20.291C23.718 20.6278 23.7576 20.9553 23.8351 21.2696C20.0837 21.0901 16.7572 19.3824 14.531 16.7857C14.13 17.4406 13.9191 18.1849 13.9198 18.9427C13.9198 20.4316 14.7166 21.746 15.9284 22.515C15.2116 22.4942 14.5106 22.3101 13.8842 21.9783C13.8835 21.9963 13.8835 22.0138 13.8835 22.0331C13.8835 24.1115 15.4394 25.8468 17.5047 26.24C17.1168 26.3404 16.7165 26.3912 16.3145 26.391C16.0242 26.391 15.7412 26.3638 15.4662 26.3136C16.0408 28.0188 17.7071 29.2597 19.6827 29.2944C18.1378 30.4457 16.1917 31.1314 14.0767 31.1314C13.7169 31.1317 13.3573 31.1118 13 31.0719C14.9976 32.2894 17.3694 33 19.9188 33Z" fill="#1D9BF0"/>
</svg>
