<svg width="21" height="20" viewBox="0 0 21 20" fill="none" xmlns="http://www.w3.org/2000/svg">
<path d="M1.23462 10C2.01838 5.73313 5.75669 2.5 10.2502 2.5C14.7436 2.5 18.4819 5.73313 19.2657 10C18.4819 14.2668 14.7436 17.5 10.2502 17.5C5.75669 17.5 2.01838 14.2668 1.23462 10ZM10.2502 14.1667C12.5513 14.1667 14.4168 12.3012 14.4168 10C14.4168 7.69882 12.5513 5.83333 10.2502 5.83333C7.94895 5.83333 6.08347 7.69882 6.08347 10C6.08347 12.3012 7.94895 14.1667 10.2502 14.1667ZM10.2502 12.5C8.86942 12.5 7.75014 11.3807 7.75014 10C7.75014 8.61925 8.86942 7.5 10.2502 7.5C11.6308 7.5 12.7502 8.61925 12.7502 10C12.7502 11.3807 11.6308 12.5 10.2502 12.5Z" fill="#1C7BF8"/>
</svg>
